<svg id="Layer_1" data-name="Layer 1" xmlns="http://www.w3.org/2000/svg" xmlns:xlink="http://www.w3.org/1999/xlink" viewBox="0 0 420.6 360.01"><defs><clipPath id="clip-path"><rect width="420.6" height="360.01" style="fill:none"/></clipPath></defs><title>Artboard 1</title><rect width="420.6" height="360.01" style="fill:#30415f"/><g style="clip-path:url(#clip-path)"><path d="M67.92,152.81c-5.86-2.15-16-3.34-21.3.69C42,157,39.37,164,39.75,169.67a19.77,19.77,0,0,0,10.81,16A21.29,21.29,0,0,0,70,185.14a19.84,19.84,0,0,0,8.86-9.86,16.8,16.8,0,0,0-.24-13.16A18.86,18.86,0,0,0,67.92,152.81Z" style="fill:#a5e3cc"/><path d="M67.85,153a26.22,26.22,0,0,0-7.43-1.33,33.69,33.69,0,0,0-7.45.12,12.68,12.68,0,0,0-6.58,2.81,16.8,16.8,0,0,0-4.19,5.94,20.29,20.29,0,0,0-1.71,7.13,17.26,17.26,0,0,0,1.2,7.17,19.26,19.26,0,0,0,9.78,10.49,20.51,20.51,0,0,0,14.43.83,20.06,20.06,0,0,0,11.41-8.91,16.61,16.61,0,0,0,1.33-14.33,15.84,15.84,0,0,0-4.33-6.07A20.57,20.57,0,0,0,67.85,153Zm.13-.35a19.18,19.18,0,0,1,11.25,10,17.52,17.52,0,0,1-.93,15.14,20.92,20.92,0,0,1-12,9.65,21.93,21.93,0,0,1-15.44-.81,20.7,20.7,0,0,1-10.62-11.26,18.69,18.69,0,0,1-1.26-7.8,21.94,21.94,0,0,1,1.88-7.64,18.21,18.21,0,0,1,4.6-6.41,14.05,14.05,0,0,1,7.29-3.1,25.42,25.42,0,0,1,7.79.08A47.92,47.92,0,0,1,68,152.64Z" style="fill:#050827"/><path d="M70.76,154a33.31,33.31,0,0,1,9.73-8.3l1.39-.81a9.11,9.11,0,0,1,1.57-.75,4.51,4.51,0,0,1,2-.27A2.76,2.76,0,0,1,87.35,145,3.89,3.89,0,0,1,88,146.9l.07.9a8.65,8.65,0,0,1,0,.88,10.84,10.84,0,0,1-.87,3.32c-1.79,4.13-4.8,7.31-7.45,10.53l-8.22,9.66-8.24,9.65a90.23,90.23,0,0,1-8.84,9.22,27,27,0,0,1-5.37,3.63A21.62,21.62,0,0,1,46,195.93a4.83,4.83,0,0,1-1.8.18,2.36,2.36,0,0,1-1.74-1,3.71,3.71,0,0,1-.49-1.77,7.41,7.41,0,0,1,.09-1.7,10.64,10.64,0,0,1,1.09-3.11,47.78,47.78,0,0,1,3.55-5.32l.39.27a45.79,45.79,0,0,0-3.18,5.41,10.59,10.59,0,0,0-.86,2.9,6,6,0,0,0,0,1.46,2.63,2.63,0,0,0,.37,1.24c.38.59,1.34.58,2.25.28a21.34,21.34,0,0,0,2.77-1.26,26.13,26.13,0,0,0,5-3.56A98.73,98.73,0,0,0,62,180.7L70.11,171l8.11-9.71c1.38-1.64,2.77-3.2,4-4.84a24.74,24.74,0,0,0,3.21-5.16,9,9,0,0,0,.76-2.77,4,4,0,0,0-.33-2.45,1,1,0,0,0-.72-.41,2.68,2.68,0,0,0-1.16.18,16.79,16.79,0,0,0-2.65,1.37c-3.58,2.13-6.84,4.68-10.29,7.16Z" style="fill:#fff"/><path d="M40.16,164.86c-2,.66-4,1.37-5.89,2.2a23,23,0,0,0-5.28,3.1,13.51,13.51,0,0,0-1.08,1,2.92,2.92,0,0,0-.6,1,1.46,1.46,0,0,0,0,1,2.17,2.17,0,0,0,.7.86,5.71,5.71,0,0,0,2.58.88c1,.17,2,.28,3.09.36,4.16.32,8.41.06,12.68,0s8.48-.22,12.72-.49q3.18-.18,6.34-.54l6.33-.67c2.12-.23,4.22-.42,6.35-.69s4.22-.46,6.28-.83a25.43,25.43,0,0,0,5.94-1.72,5.59,5.59,0,0,0,1.21-.74,4.31,4.31,0,0,0,.89-1,1.08,1.08,0,0,0,.14-1,2.08,2.08,0,0,0-.87-.84,10.69,10.69,0,0,0-2.85-1,31.31,31.31,0,0,0-3.1-.52l-6.34-.72,0-.47,6.38.35a29.14,29.14,0,0,1,3.22.38,11.32,11.32,0,0,1,3.2,1,3.2,3.2,0,0,1,1.4,1.32,2.32,2.32,0,0,1-.12,2.08,5.66,5.66,0,0,1-1.13,1.42,6.66,6.66,0,0,1-1.47,1,26.76,26.76,0,0,1-6.26,2c-2.12.42-4.25.69-6.36,1s-4.23.52-6.34.77l-6.37.73q-3.18.41-6.38.61-6.4.47-12.81.61c-4.24,0-8.53.27-12.87-.1-1.08-.1-2.17-.22-3.24-.41a7.46,7.46,0,0,1-3.38-1.25,3.84,3.84,0,0,1-1.24-1.63,3.22,3.22,0,0,1-.07-2.14,4.62,4.62,0,0,1,1-1.7,13.41,13.41,0,0,1,1.3-1.16,20.47,20.47,0,0,1,12.17-4.42Z" style="fill:#fff"/><path d="M343.58,252.16c.69,3.12,1.26,6.25,1.89,9.38l1.68,9.41c1.1,6.28,2.05,12.58,3,18.89,1.78,12.62,3.34,25.27,4.29,38-2.28-12.55-4.14-25.15-6-37.75-.88-6.31-1.79-12.61-2.59-18.93l-1.21-9.48C344.3,258.5,343.89,255.34,343.58,252.16Z" style="fill:#fce6d2"/><path d="M309.79,304.51c3.35-1,6.72-2,10.07-3l10.08-2.9c6.71-1.95,13.45-3.82,20.19-5.69s13.51-3.65,20.3-5.32,13.62-3.24,20.48-4.62q-10.05,3-20.14,5.9t-20.19,5.67c-6.75,1.83-13.51,3.66-20.31,5.31l-10.21,2.45C316.64,303.06,313.23,303.84,309.79,304.51Z" style="fill:#fce6d2"/><path d="M367,265.91a110.33,110.33,0,0,1-7.26,13.72c-2.69,4.43-5.62,8.7-8.57,12.93-6,8.45-12.08,16.71-17.73,25.37,4.49-9.34,10.44-17.89,16.34-26.34S361.69,274.79,367,265.91Z" style="fill:#fce6d2"/><path d="M322,281.77c8.87,4.21,17.57,8.69,26.3,13.12s17.43,8.89,26,13.62a281.58,281.58,0,0,1-26.8-12.11A285.34,285.34,0,0,1,322,281.77Z" style="fill:#fce6d2"/><path d="M339.71,297.38a9.48,9.48,0,0,0,4.3,6.72c6.22,3.76,15.76-1.07,15.62-8.59a9.78,9.78,0,0,0-2.53-6.16,12.42,12.42,0,0,0-9.3-4.39C341.63,285.21,338.78,292,339.71,297.38Z" style="fill:#fce6d2"/><path d="M357,289.22a31,31,0,0,1-6.21,7.52,39.86,39.86,0,0,1-8.89,5.5A8.54,8.54,0,0,0,344,304.1c6.22,3.76,15.76-1.07,15.62-8.59a9.78,9.78,0,0,0-2.53-6.16Z" style="fill:#edc498"/><path d="M163.33-42.63c.69,3.12,1.26,6.25,1.89,9.38l1.68,9.41c1.1,6.28,2,12.58,3,18.88,1.78,12.62,3.34,25.28,4.29,38-2.27-12.55-4.14-25.15-6-37.76-.88-6.3-1.78-12.61-2.58-18.93l-1.21-9.48C164.06-36.29,163.64-39.45,163.33-42.63Z" style="fill:#fce6d2"/><path d="M129.55,9.72c3.34-1,6.71-2,10.06-3l10.08-2.9c6.72-1.95,13.45-3.82,20.19-5.69s13.51-3.65,20.3-5.32,13.62-3.24,20.49-4.62q-10.06,3-20.14,5.9T170.33-.23c-6.75,1.83-13.5,3.66-20.3,5.31L139.82,7.52C136.4,8.27,133,9.05,129.55,9.72Z" style="fill:#fce6d2"/><path d="M186.76-28.88a111.68,111.68,0,0,1-7.26,13.72c-2.7,4.43-5.63,8.7-8.58,12.93-6,8.45-12.08,16.71-17.73,25.37,4.5-9.34,10.44-17.89,16.34-26.34S181.44-20,186.76-28.88Z" style="fill:#fce6d2"/><path d="M141.72-13C150.6-8.81,159.29-4.33,168,.1s17.43,8.89,26,13.62A281.83,281.83,0,0,1,167.25,1.6,284.2,284.2,0,0,1,141.72-13Z" style="fill:#fce6d2"/><path d="M159.46,2.59a9.53,9.53,0,0,0,4.3,6.72C170,13.06,179.52,8.24,179.39.72a9.74,9.74,0,0,0-2.54-6.16,12.4,12.4,0,0,0-9.3-4.39C161.38-9.58,158.54-2.81,159.46,2.59Z" style="fill:#fce6d2"/><path d="M176.73-5.57A30.77,30.77,0,0,1,170.51,2a39.79,39.79,0,0,1-8.88,5.5,8.49,8.49,0,0,0,2.13,1.86C170,13.06,179.52,8.24,179.39.72a9.74,9.74,0,0,0-2.54-6.16Z" style="fill:#edc498"/><path d="M350.2,35.27c-5.21-5.75-14.57-6.49-21.42-2.84a21.64,21.64,0,0,0-10.12,11.8,13.29,13.29,0,0,0-.81,5,7.28,7.28,0,0,0-1.2,1A4.21,4.21,0,0,0,315.47,53c-1.42-.35-3.63,0-5,.08a11.64,11.64,0,0,0-5.66,1.63,17.16,17.16,0,0,0-3.42,3.18c-2.79,3.15-5.5,6.39-8.1,9.71a7,7,0,0,0-1.5,2.62,7.19,7.19,0,0,0,.27,3.31q.69,2.78,1.36,5.54-3.62,7.73-7.75,15.19a3.6,3.6,0,0,1-1.3,1.53,3.65,3.65,0,0,1-1.86.23c-5.07-.28-10.85-.92-13.82-5-.41-.57-1-1.27-1.64-1.07a1.43,1.43,0,0,0-.57.38,50.89,50.89,0,0,0-8.87,10.8c-1.22,2-2.2,4.83-.46,6.39a3.58,3.58,0,0,0,3.81.33,10.71,10.71,0,0,0,3.14-2.52l2.63-2.75c4.19,2.11,9,3.89,12.89,6.47,2.89,1.91,5,5,8.79,5.32,3.47.29,6.61-2.07,8.85-4.73s4-5.77,6.76-7.93c1.16,8,2.23,16.53-1.54,23.63-2,3.75-5.16,6.72-8.52,9.31-2.14,1.65-4.65,3.87-4,6.49a6.3,6.3,0,0,0,1.41,2.4,71.46,71.46,0,0,0,5,5.47,11.64,11.64,0,0,0,4.38,3.09,4.45,4.45,0,0,0,4.9-1.23,5.19,5.19,0,0,0,.78-3.26,11.64,11.64,0,0,0-3.39-7.76,2,2,0,0,1-.68-1c-.13-.71.55-1.28,1.15-1.69,7.71-5.3,14.9-12.35,17.17-21.43,1.6-6.44.58-13.21,1.19-19.81A14,14,0,0,1,323,91a10.51,10.51,0,0,1,1.36-2c3.21,4.44,6.83,8.67,11.83,10.72a2.51,2.51,0,0,0,1.81.21,2.54,2.54,0,0,0,1-.77l4.4-4.83a.62.62,0,0,0,.18-.3c0-.24-.17-.42-.36-.56l-5.65-4a6.76,6.76,0,0,1-2.68-2.86,6.7,6.7,0,0,1,0-3.27q1.37-8.74,2.75-17.5c1.13-.33,2.56-.61,4.07-.92,3.3-.67,7-1.46,9-3.18,2.44-2.14,3.41-7.35,3.78-11,.06-.62.11-1.2.14-1.7C354.82,44,353.5,38.91,350.2,35.27Z" style="fill:#a5e3cc"/><path d="M330,63.88l-8.59-8.28a13.26,13.26,0,0,1-2.71-3.22,7.75,7.75,0,0,1-.83-3.13,7.28,7.28,0,0,0-1.2,1,4,4,0,0,0-1.17,3.29,5.86,5.86,0,0,0,1.88,2.95q4.13,4.23,8.57,8.13c1.39,1.22,2.92,2.47,4.76,2.69a5.64,5.64,0,0,0,3.74-1,4.41,4.41,0,0,1-.89-.09A8.05,8.05,0,0,1,330,63.88Z" style="fill:#7ba5cf"/><path d="M330,63.88l-8.59-8.28a13.26,13.26,0,0,1-2.71-3.22,7.75,7.75,0,0,1-.83-3.13,7.28,7.28,0,0,0-1.2,1,4,4,0,0,0-1.17,3.29,5.86,5.86,0,0,0,1.88,2.95q4.13,4.23,8.57,8.13c1.39,1.22,2.92,2.47,4.76,2.69a5.64,5.64,0,0,0,3.74-1,4.41,4.41,0,0,1-.89-.09A8.05,8.05,0,0,1,330,63.88Z" style="fill:none;stroke:#160a14;stroke-miterlimit:10;stroke-width:1.69337618350983px"/><path d="M350.2,35.27c-5.21-5.75-14.57-6.49-21.42-2.84a21.64,21.64,0,0,0-10.12,11.8,13.29,13.29,0,0,0-.81,5,7.75,7.75,0,0,0,.83,3.13,13.26,13.26,0,0,0,2.71,3.22L330,63.88a8.05,8.05,0,0,0,3.56,2.37,4.41,4.41,0,0,0,.89.09,10.15,10.15,0,0,0,3.11-.56c1.14-.33,2.59-.62,4.12-.93a79,79,0,0,1-8.11-4c-2.95-1.66-6-3.8-6.92-7.07a13.47,13.47,0,0,1-.25-4.44,8.36,8.36,0,0,1,.82-3.68c1.06-1.86,3.34-2.65,5.46-2.92,5.06-.64,10.2.82,14.7,3.21a51.45,51.45,0,0,1,7,4.67c.06-.62.11-1.2.14-1.7C354.82,44,353.5,38.91,350.2,35.27Z" style="fill:none;stroke:#160a14;stroke-miterlimit:10;stroke-width:1.69337618350983px"/><path d="M354.4,50.65a51.45,51.45,0,0,0-7-4.67c-4.5-2.39-9.64-3.85-14.7-3.21-2.12.27-4.4,1.06-5.46,2.92a8.36,8.36,0,0,0-.82,3.68,13.47,13.47,0,0,0,.25,4.44c.91,3.27,4,5.41,6.92,7.07a79,79,0,0,0,8.11,4c3.3-.67,7-1.46,9-3.18C353.06,59.53,354,54.32,354.4,50.65Z" style="fill:#cef0f2"/><path d="M315.9,53.18c-1.36-.58-3.91-.14-5.44-.06a11.64,11.64,0,0,0-5.66,1.63,17.16,17.16,0,0,0-3.42,3.18c-2.79,3.15-5.5,6.39-8.1,9.71a7,7,0,0,0-1.5,2.62,7.19,7.19,0,0,0,.27,3.31l2.68,11a2.94,2.94,0,0,0,.82,1.67,2.82,2.82,0,0,0,1.51.45,32.73,32.73,0,0,0,8.39-.35,72.39,72.39,0,0,1-1.4-11.65,3,3,0,0,1,.19-1.45A3.13,3.13,0,0,1,305.53,72a36.11,36.11,0,0,0,8.87-7.94" style="fill:none;stroke:#160a14;stroke-miterlimit:10;stroke-width:1.69337618350983px"/><path d="M337.62,65.54l-2.78,17.73a6.7,6.7,0,0,0,0,3.27,6.7,6.7,0,0,0,2.68,2.86l5.65,4c.19.14.4.32.36.56a.62.62,0,0,1-.18.3L339,99.11a2.54,2.54,0,0,1-1,.77,2.51,2.51,0,0,1-1.81-.21c-5.12-2.09-8.79-6.48-12.06-11" style="fill:none;stroke:#160a14;stroke-miterlimit:10;stroke-width:1.69337618350983px"/><path d="M332.92,71.54A15.59,15.59,0,0,1,329.32,84c-2.07,2.38-4.9,4.16-6.3,7a14,14,0,0,0-1.18,4.93c-.61,6.6.41,13.37-1.19,19.81-2.27,9.08-9.46,16.13-17.17,21.43-.6.41-1.28,1-1.15,1.69a2,2,0,0,0,.68,1,11.64,11.64,0,0,1,3.39,7.76,5.19,5.19,0,0,1-.78,3.26,4.45,4.45,0,0,1-4.9,1.23,11.64,11.64,0,0,1-4.38-3.09,71.46,71.46,0,0,1-5-5.47,6.3,6.3,0,0,1-1.41-2.4c-.66-2.62,1.85-4.84,4-6.49,3.36-2.59,6.53-5.56,8.52-9.31,3.77-7.1,2.7-15.68,1.54-23.63-2.73,2.16-4.51,5.27-6.76,7.93s-5.38,5-8.85,4.73c-3.79-.31-5.9-3.41-8.79-5.32-3.91-2.58-8.7-4.36-12.89-6.47l-2.63,2.75a10.71,10.71,0,0,1-3.14,2.52,3.58,3.58,0,0,1-3.81-.33c-1.74-1.56-.76-4.41.45-6.39a51.24,51.24,0,0,1,8.88-10.8A1.43,1.43,0,0,1,267,90c.67-.2,1.23.5,1.64,1.07,3,4.12,8.75,4.76,13.82,5a3.65,3.65,0,0,0,1.86-.23,3.6,3.6,0,0,0,1.3-1.53q4.23-7.64,7.93-15.56" style="fill:none;stroke:#160a14;stroke-miterlimit:10;stroke-width:1.69337618350983px"/><path d="M338,99.88a1.46,1.46,0,0,1-.45.1,44.59,44.59,0,0,0,5.53,4.8c1.45,1.12,3.12,2.3,4.94,2a2.76,2.76,0,0,0,1.94-1.2,4.46,4.46,0,0,0,.13-3.28c-.42-1.91-.91-4-2.39-5.24a9.14,9.14,0,0,0-3.14-1.55l-1.79-.62L339,99.11A2.54,2.54,0,0,1,338,99.88Z" style="fill:#a5e3cc"/><path d="M338,99.88a1.46,1.46,0,0,1-.45.1,44.59,44.59,0,0,0,5.53,4.8c1.45,1.12,3.12,2.3,4.94,2a2.76,2.76,0,0,0,1.94-1.2,4.46,4.46,0,0,0,.13-3.28c-.42-1.91-.91-4-2.39-5.24a9.14,9.14,0,0,0-3.14-1.55l-1.79-.62L339,99.11A2.54,2.54,0,0,1,338,99.88Z" style="fill:none;stroke:#160a14;stroke-miterlimit:10;stroke-width:1.69337618350983px"/><path d="M284.52,99.81a16.59,16.59,0,0,0-.34-3.91,4.11,4.11,0,0,1-1.68.16c-5.07-.28-10.85-.92-13.82-5-.41-.57-1-1.27-1.64-1.07a1.43,1.43,0,0,0-.57.38,50.89,50.89,0,0,0-8.87,10.8c-1.22,2-2.2,4.83-.46,6.39a3.58,3.58,0,0,0,3.81.33,10.71,10.71,0,0,0,3.14-2.52l2.63-2.75c4.19,2.11,9,3.89,12.89,6.47.43.29.85.61,1.26.94.81-1.7,1.6-3.41,2.3-5.15A17.05,17.05,0,0,0,284.52,99.81Z" style="fill:#7ba5cf"/><path d="M303.54,122.93a18.43,18.43,0,0,1-1.07,2.41c-2,3.75-5.16,6.72-8.52,9.31-2.14,1.65-4.65,3.87-4,6.49a6.3,6.3,0,0,0,1.41,2.4,71.46,71.46,0,0,0,5,5.47,11.64,11.64,0,0,0,4.38,3.09,4.45,4.45,0,0,0,4.9-1.23,5.19,5.19,0,0,0,.78-3.26,11.64,11.64,0,0,0-3.39-7.76,2,2,0,0,1-.68-1c-.13-.71.55-1.28,1.15-1.69a57.34,57.34,0,0,0,9.08-7.61,25.55,25.55,0,0,1-2.49-1.65C307.86,126.29,305.65,124.66,303.54,122.93Z" style="fill:#7ba5cf"/><path d="M284.52,99.81a16.59,16.59,0,0,0-.34-3.91,4.11,4.11,0,0,1-1.68.16c-5.07-.28-10.85-.92-13.82-5-.41-.57-1-1.27-1.64-1.07a1.43,1.43,0,0,0-.57.38,50.89,50.89,0,0,0-8.87,10.8c-1.22,2-2.2,4.83-.46,6.39a3.58,3.58,0,0,0,3.81.33,10.71,10.71,0,0,0,3.14-2.52l2.63-2.75c4.19,2.11,9,3.89,12.89,6.47.43.29.85.61,1.26.94.81-1.7,1.6-3.41,2.3-5.15A17.05,17.05,0,0,0,284.52,99.81Z" style="fill:none;stroke:#160a14;stroke-miterlimit:10;stroke-width:1.69337618350983px"/><path d="M303.54,122.93a18.43,18.43,0,0,1-1.07,2.41c-2,3.75-5.16,6.72-8.52,9.31-2.14,1.65-4.65,3.87-4,6.49a6.3,6.3,0,0,0,1.41,2.4,71.46,71.46,0,0,0,5,5.47,11.64,11.64,0,0,0,4.38,3.09,4.45,4.45,0,0,0,4.9-1.23,5.19,5.19,0,0,0,.78-3.26,11.64,11.64,0,0,0-3.39-7.76,2,2,0,0,1-.68-1c-.13-.71.55-1.28,1.15-1.69a57.34,57.34,0,0,0,9.08-7.61,25.55,25.55,0,0,1-2.49-1.65C307.86,126.29,305.65,124.66,303.54,122.93Z" style="fill:none;stroke:#160a14;stroke-miterlimit:10;stroke-width:1.69337618350983px"/><path d="M305.73,86.73a8.35,8.35,0,0,1,.71,6,6.87,6.87,0,0,1-3.87,4.52,3.44,3.44,0,0,1-2.16.25,3.11,3.11,0,0,1-1.89-1.8,9.31,9.31,0,0,1-.58-2.62l-.83-6.66m.83,6.66a9.31,9.31,0,0,0,.58,2.62,3.11,3.11,0,0,0,1.89,1.8,3.44,3.44,0,0,0,2.16-.25,6.87,6.87,0,0,0,3.87-4.52,8.35,8.35,0,0,0-.71-6c-.08-.16-.17-.32-.26-.47" style="fill:none;stroke:#160a14;stroke-miterlimit:10;stroke-width:1.69337618350983px"/><path d="M318.79,33.78a9.15,9.15,0,0,0-2.32,4.29,6.46,6.46,0,0,0,.14,4.3c1,2.19,3.65,3.06,6,3.53a9.12,9.12,0,0,0,3.92.15,6.36,6.36,0,0,0,4.36-5,7.88,7.88,0,0,0-1.66-6.69C326.72,31.44,321.61,31,318.79,33.78Z" style="fill:#cef0f2"/><path d="M318.79,33.78a9.15,9.15,0,0,0-2.32,4.29,6.46,6.46,0,0,0,.14,4.3c1,2.19,3.65,3.06,6,3.53a9.12,9.12,0,0,0,3.92.15,6.36,6.36,0,0,0,4.36-5,7.88,7.88,0,0,0-1.66-6.69C326.72,31.44,321.61,31,318.79,33.78Z" style="fill:none;stroke:#160a14;stroke-miterlimit:10;stroke-width:1.69337618350983px"/><path d="M327,38.47c-1.5-4.08-9.11-1.73-6.4,2.36a3.88,3.88,0,0,0,2.27,1.54,3.69,3.69,0,0,0,3.15-.52A3,3,0,0,0,327,38.47Z" style="fill:none;stroke:#160a14;stroke-miterlimit:10;stroke-width:1.69337618350983px"/><path d="M213.61,45.36a50.12,50.12,0,0,0,0-5.06c.16,3.54-.08,9.29,3.4,11.36a6.93,6.93,0,0,0,3,.58,29,29,0,0,0,3.36.1,40.86,40.86,0,0,0-4.27.55,7.12,7.12,0,0,0-2.24.69c-1.35.74-1.63,2.25-1.91,3.65a31.63,31.63,0,0,0-.55,8.24c-.52-3.19.47-6.78-1.31-9.47a5.52,5.52,0,0,0-2.21-1.91,12,12,0,0,0-3-.7l-3.38-.48c1.3-.24,2.62-.25,3.92-.47a5.61,5.61,0,0,0,5-4.9A19.38,19.38,0,0,0,213.61,45.36Z" style="fill:#a3bfcd"/><path d="M118.88,228a50.12,50.12,0,0,0,0-5.06c.15,3.54-.08,9.29,3.39,11.36a7,7,0,0,0,3,.58,29,29,0,0,0,3.36.1,41.39,41.39,0,0,0-4.28.55,7.15,7.15,0,0,0-2.23.69c-1.36.74-1.64,2.25-1.92,3.65a32.07,32.07,0,0,0-.55,8.24c-.51-3.19.48-6.78-1.31-9.47a5.56,5.56,0,0,0-2.2-1.91,11.64,11.64,0,0,0-3-.69l-3.38-.49c1.29-.23,2.62-.25,3.92-.47a5.6,5.6,0,0,0,5-4.9A19.38,19.38,0,0,0,118.88,228Z" style="fill:#d4dfe3"/><path d="M400.29-7.33a50.32,50.32,0,0,0,0-5.07c.16,3.54-.08,9.3,3.4,11.37a7.08,7.08,0,0,0,3,.58A31.42,31.42,0,0,0,410-.36a40.88,40.88,0,0,0-4.27.56,7.11,7.11,0,0,0-2.24.68c-1.35.75-1.63,2.25-1.91,3.65a31.66,31.66,0,0,0-.55,8.24c-.52-3.18.47-6.77-1.31-9.46a5.44,5.44,0,0,0-2.21-1.91,11.16,11.16,0,0,0-3-.7L391.16.22c1.3-.24,2.62-.25,3.92-.47a5.62,5.62,0,0,0,5-4.9A19.38,19.38,0,0,0,400.29-7.33Z" style="fill:#d4dfe3"/><path d="M400.29,182.68a50.12,50.12,0,0,0,0-5.06c.16,3.54-.08,9.3,3.4,11.36a7.08,7.08,0,0,0,3,.59,31.42,31.42,0,0,0,3.36.09c-1.43.11-2.86.3-4.27.55a7.12,7.12,0,0,0-2.24.69c-1.35.75-1.63,2.25-1.91,3.65a31.66,31.66,0,0,0-.55,8.24c-.52-3.19.47-6.78-1.31-9.46a5.44,5.44,0,0,0-2.21-1.91,11.16,11.16,0,0,0-3-.7l-3.38-.49c1.3-.23,2.62-.25,3.92-.47a5.6,5.6,0,0,0,5-4.89A19.82,19.82,0,0,0,400.29,182.68Z" style="fill:#a3bfcd"/><path d="M15.79-5.94a44.86,44.86,0,0,0,0-5.06c.16,3.54-.08,9.29,3.4,11.36a7,7,0,0,0,3,.58,29,29,0,0,0,3.36.1,40.7,40.7,0,0,0-4.28.55A7.29,7.29,0,0,0,19,2.28c-1.35.74-1.63,2.25-1.91,3.65a32.07,32.07,0,0,0-.55,8.24C16,11,17,7.39,15.23,4.7A5.52,5.52,0,0,0,13,2.79a12,12,0,0,0-3-.7L6.66,1.61c1.3-.23,2.63-.25,3.92-.47a5.6,5.6,0,0,0,5-4.9A19.38,19.38,0,0,0,15.79-5.94Z" style="fill:#a3bfcd"/><path d="M158.51,141.71A42.06,42.06,0,0,0,153.89,154c-2.6,12.81.84,26.94,10,36.48,11.14,11.65,28.64,14.23,43.44,8.75,15.86-5.88,26.94-21.5,27.87-38.41q.06-1,.06-2.07c.05-12.73-6.3-25.51-16.83-32.77-11.15-7.69-28.2-7.81-40.26-2.36A43.34,43.34,0,0,0,158.51,141.71Z" style="fill:#9fbacf"/><path d="M211.18,133.3c.48,1.56,2.18,2.53,2.59,4.11a5.78,5.78,0,0,1-.32,3,5.23,5.23,0,0,0-.23,3,1.87,1.87,0,0,0,2.33,1.33,4.32,4.32,0,0,0,1.15-1.07c1.29-1.3,3.36-1.38,5.18-1.11s3.65.8,5.45.43A7.62,7.62,0,0,0,231,140.8,38.74,38.74,0,0,0,218.39,126a30.48,30.48,0,0,0-4.2-2.41,15.13,15.13,0,0,1-1.5,4.52C211.84,129.73,210.63,131.52,211.18,133.3Z" style="fill:#c4dcdc"/><path d="M213.31,181.18c.91-1.37,2.25-2.42,3.07-3.85a6.55,6.55,0,0,0-2.21-8.53c-2.07-1.24-4.65-1.21-6.91-2.06-3-1.15-5.66-3.93-8.88-3.56-2.29.27-4.15,2.13-6.43,2.47-5.06.74-8.16-5.83-13.09-7.19-1.68-.46-3.68-.37-4.88-1.64-1.39-1.48-.75-4,.73-5.44s3.52-2,5.42-2.72a13.09,13.09,0,0,0,6.46-4.6c1.48-2.24,1.7-5.48-.09-7.48-1.44-1.62-4-2.36-4.59-4.44s1.27-4,2.42-5.94A11.21,11.21,0,0,0,185.9,121a41.91,41.91,0,0,0-7.77,2.58,43.34,43.34,0,0,0-19.62,18.11.83.83,0,0,1-.07.13c.19.4.37.8.58,1.19,1.94,3.53,5.06,6.61,5.59,10.6.43,3.28-.82,7.21,1.53,9.53,2.59,2.55,7.13.71,10.46,2.19,2.57,1.14,4,4.08,6.52,5.28,2.72,1.27,5.89.24,8.88,0a3.82,3.82,0,0,1,2.54.43c1.19.8,1.28,2.52,1,3.92s-.86,2.81-.57,4.21c.39,1.88,2.16,3.08,3.46,4.49,2.93,3.19,3.6,7.89,3.22,12.2a29.63,29.63,0,0,1-.93,5.21,43,43,0,0,0,6.28-1.75,31.13,31.13,0,0,0,4.11-10.21C211.62,186.39,211.78,183.48,213.31,181.18Z" style="fill:#c4dcdc"/><path d="M158.67,141.8A38.28,38.28,0,0,0,154,157a43.21,43.21,0,0,0-.18,8,40.83,40.83,0,0,0,1.22,7.86,36.07,36.07,0,0,0,12.37,19.92A35,35,0,0,0,174,197.1c9.48,4.82,20.88,5.28,31,2.11l1.89-.63c.62-.22,1.23-.5,1.84-.74a39.14,39.14,0,0,0,3.58-1.71,40.65,40.65,0,0,0,6.56-4.48,43.8,43.8,0,0,0,5.63-5.6c.79-1.07,1.68-2.06,2.38-3.19l1.12-1.65,1-1.73a43.37,43.37,0,0,0,5.15-15,38.7,38.7,0,0,0-.82-15.78,41.09,41.09,0,0,0-6.88-14.26,37.81,37.81,0,0,0-5.44-5.8,30.07,30.07,0,0,0-6.58-4.44A39.53,39.53,0,0,0,199,120.29a49.84,49.84,0,0,0-8,.22,47.86,47.86,0,0,0-7.87,1.56A42.22,42.22,0,0,0,158.67,141.8Zm-.31-.18a43.28,43.28,0,0,1,24.58-20.13,47.65,47.65,0,0,1,16.1-2,40.51,40.51,0,0,1,15.79,3.84,32.17,32.17,0,0,1,6.85,4.5,38.73,38.73,0,0,1,5.67,5.92,41.27,41.27,0,0,1,7.18,14.66,40.19,40.19,0,0,1,.89,16.3,44.9,44.9,0,0,1-5.26,15.47l-1,1.78L228,183.65c-.72,1.16-1.63,2.19-2.45,3.29a45.48,45.48,0,0,1-5.8,5.81A42.32,42.32,0,0,1,213,197.4a39.45,39.45,0,0,1-3.71,1.78c-.64.26-1.26.55-1.91.78l-1.95.65a42.29,42.29,0,0,1-8,1.72,41.74,41.74,0,0,1-8.21.24,43.66,43.66,0,0,1-8.11-1.3,42.21,42.21,0,0,1-7.68-2.93,36.57,36.57,0,0,1-6.87-4.52,40,40,0,0,1-3-2.79,36.15,36.15,0,0,1-2.67-3.13,40.19,40.19,0,0,1-7.06-14.73,42,42,0,0,1-.88-16.28A44.83,44.83,0,0,1,158.36,141.62Z" style="fill:#160a14"/><path d="M211.3,133.27c.38,1.22,1.54,1.91,2.34,3a3.3,3.3,0,0,1,.65,2,8.44,8.44,0,0,1-.36,2,9.6,9.6,0,0,0-.4,1.8,2.43,2.43,0,0,0,.32,1.56,1.49,1.49,0,0,0,1.22.69c.42,0,.75-.43,1.22-1a5.27,5.27,0,0,1,3.84-1.47,20.4,20.4,0,0,1,3.9.47,8.28,8.28,0,0,0,3.61,0,7.3,7.3,0,0,0,3-1.9l-.09.54a40.1,40.1,0,0,0-6.87-9.94,35.12,35.12,0,0,0-9.64-7.3l.35-.17a15.92,15.92,0,0,1-1.79,4.91,19.78,19.78,0,0,0-1.14,2.31A3.73,3.73,0,0,0,211.3,133.27Zm-.23.07a4.09,4.09,0,0,1,.17-2.63,18.84,18.84,0,0,1,1.13-2.35,15,15,0,0,0,1.58-4.85l0-.32.3.14a30.07,30.07,0,0,1,5.36,3.09,37.56,37.56,0,0,1,4.68,4,40.77,40.77,0,0,1,7.1,10.12l.15.3-.24.24a8.4,8.4,0,0,1-3.43,2.16,8.59,8.59,0,0,1-4,.05,20.73,20.73,0,0,0-3.73-.48A4.34,4.34,0,0,0,217,144c-.2.21-.41.47-.69.73a1.93,1.93,0,0,1-1.13.5,2.36,2.36,0,0,1-2-1.09,3.26,3.26,0,0,1-.46-2.14,10.68,10.68,0,0,1,.44-2,4.23,4.23,0,0,0,0-3.42C212.51,135.57,211.48,134.62,211.07,133.34Z" style="fill:#160a14"/><path d="M213.21,181.11a31.21,31.21,0,0,1,2.11-2.56,6.31,6.31,0,0,0,1.49-2.83,6.44,6.44,0,0,0-1.79-5.84c-1.52-1.49-3.77-1.74-5.93-2.2a12.08,12.08,0,0,1-3.21-1.1c-1-.51-1.95-1.11-2.89-1.65a10.78,10.78,0,0,0-2.92-1.24,5.14,5.14,0,0,0-3,.26c-1,.38-1.92,1-2.95,1.43a8.11,8.11,0,0,1-1.63.59,4.43,4.43,0,0,1-.88.12,3.78,3.78,0,0,1-.89,0,7.21,7.21,0,0,1-3.28-1.15,22.73,22.73,0,0,1-2.67-2.05,21,21,0,0,0-5.24-3.75,15.18,15.18,0,0,0-3.14-.73,4.42,4.42,0,0,1-3.07-1.77,4,4,0,0,1-.22-3.56,5.65,5.65,0,0,1,2.21-2.72c1.94-1.31,4.17-1.76,6.1-2.7a11.34,11.34,0,0,0,4.9-3.94,6.22,6.22,0,0,0,.51-5.9,5.87,5.87,0,0,0-2.12-2.2,10.6,10.6,0,0,1-2.63-2.21,3.67,3.67,0,0,1-.67-1.73,4.09,4.09,0,0,1,.25-1.81,13.62,13.62,0,0,1,1.7-2.94,10.94,10.94,0,0,0,2.13-5.93l.52.44a40,40,0,0,0-8.29,2.83,40.64,40.64,0,0,0-7.48,4.58,43.47,43.47,0,0,0-11.42,13.2l0-.39c1.42,3.25,4.09,5.87,5.51,9.37a10.88,10.88,0,0,1,.7,2.72,19.87,19.87,0,0,1,.07,2.77c0,1.8-.19,3.65.52,5.17a4,4,0,0,0,1.63,1.78,6.07,6.07,0,0,0,2.42.69c1.74.17,3.58,0,5.45.33a7,7,0,0,1,2.65,1.07,14.23,14.23,0,0,1,2.08,1.85c1.26,1.3,2.47,2.66,4.12,3.16a11.77,11.77,0,0,0,5.22.06c.9-.13,1.8-.27,2.71-.35a4.29,4.29,0,0,1,2.84.5,3.29,3.29,0,0,1,1.22,2.63,9,9,0,0,1-.44,2.76,7.43,7.43,0,0,0-.36,2.57,4.24,4.24,0,0,0,1.05,2.28c.55.68,1.23,1.28,1.87,1.93a11.36,11.36,0,0,1,1.74,2.16,14.11,14.11,0,0,1,1.86,5.16,26,26,0,0,1-.8,10.85l-.23-.25a45,45,0,0,0,6.26-1.73l-.09.08a32.29,32.29,0,0,0,3.81-8.8c.41-1.56.61-3.15.91-4.75A12.29,12.29,0,0,1,213.21,181.11Zm.2.13a12,12,0,0,0-1.6,4.48c-.29,1.58-.48,3.19-.88,4.77a32.67,32.67,0,0,1-3.79,8.92l0,.05-.06,0a44.32,44.32,0,0,1-6.3,1.78l-.32.07.09-.32a25.8,25.8,0,0,0,.71-10.66,13.52,13.52,0,0,0-1.82-5,11.32,11.32,0,0,0-1.68-2.05c-.63-.63-1.32-1.23-1.92-1.95a4.71,4.71,0,0,1-1.19-2.57A8,8,0,0,1,195,176a8.4,8.4,0,0,0,.39-2.59,2.62,2.62,0,0,0-1-2.13,3.64,3.64,0,0,0-2.41-.37c-.88.09-1.77.24-2.67.37a12.49,12.49,0,0,1-5.54,0c-1.89-.56-3.2-2.06-4.44-3.32a13.34,13.34,0,0,0-2-1.73,6,6,0,0,0-2.36-.92c-1.71-.31-3.52-.11-5.39-.3a6.88,6.88,0,0,1-2.75-.79,4.87,4.87,0,0,1-2-2.16,7.42,7.42,0,0,1-.61-2.79c-.05-.93,0-1.85,0-2.75a21.14,21.14,0,0,0-.06-2.65,10,10,0,0,0-.66-2.51c-1.3-3.28-4-5.91-5.49-9.33l-.09-.19.11-.19a44.19,44.19,0,0,1,11.64-13.45,40.92,40.92,0,0,1,16.09-7.57l.55-.13,0,.57a12.08,12.08,0,0,1-.67,3.35,12.33,12.33,0,0,1-1.6,3,13.21,13.21,0,0,0-1.61,2.76,2.84,2.84,0,0,0,.32,2.75,10.15,10.15,0,0,0,2.42,2,6.66,6.66,0,0,1,2.4,2.51,7.07,7.07,0,0,1-.56,6.73,12.1,12.1,0,0,1-5.25,4.26c-2,1-4.25,1.44-6,2.62a4.85,4.85,0,0,0-1.9,2.33,3.21,3.21,0,0,0,.14,2.81,3.64,3.64,0,0,0,2.53,1.39,16.35,16.35,0,0,1,3.28.77,21.26,21.26,0,0,1,5.48,3.9c1.64,1.4,3.4,2.86,5.46,3a3.22,3.22,0,0,0,.76,0,4.52,4.52,0,0,0,.75-.1,8.46,8.46,0,0,0,1.48-.53c1-.45,1.92-1,3-1.46a6,6,0,0,1,3.48-.29,11.38,11.38,0,0,1,3.16,1.33c1,.55,1.89,1.14,2.85,1.63a12.52,12.52,0,0,0,3,1.06c1.06.25,2.16.44,3.24.79a6.71,6.71,0,0,1,3,11.06A29.34,29.34,0,0,0,213.41,181.24Z" style="fill:#160a14"/><path d="M189.41,129.45a1,1,0,0,1,.73-.72,2.19,2.19,0,0,1,1,0,10.58,10.58,0,0,1,1.65.58,9.42,9.42,0,0,0,3.07.66,10.49,10.49,0,0,0,6.08-1.77l.15.18a7.62,7.62,0,0,1-2.84,1.89,9,9,0,0,1-3.41.62,10.26,10.26,0,0,1-1.75-.16,9.58,9.58,0,0,1-1.67-.54,11.63,11.63,0,0,0-1.48-.61,3.25,3.25,0,0,0-.66-.09,1.79,1.79,0,0,0-.68.09Z" style="fill:#231f20"/><path d="M192.28,133a1.86,1.86,0,0,1,1.44-.35,11.26,11.26,0,0,1,1.45.18c1,.18,1.85.47,2.73.72a12.89,12.89,0,0,0,2.66.46,5.9,5.9,0,0,0,2.61-.44l.13.2a4.5,4.5,0,0,1-2.74,1,10.27,10.27,0,0,1-2.88-.32l-2.7-.67a10.22,10.22,0,0,0-1.32-.25,3.11,3.11,0,0,1-1.35-.29Z" style="fill:#231f20"/><path d="M199.4,152.1a2.23,2.23,0,0,0,1.58.33c.57,0,1.19-.14,1.83-.2a32.78,32.78,0,0,1,7.58.16,31.55,31.55,0,0,1,3.72.79c2.43.68,4.78,1.55,7.14,2.3a27.72,27.72,0,0,0,7.26,1.42v.24a22,22,0,0,1-7.48-.94c-2.43-.66-4.78-1.51-7.17-2.13a35.92,35.92,0,0,0-7.29-1.06,30.26,30.26,0,0,0-3.69.08,16.23,16.23,0,0,1-1.91.13,2,2,0,0,1-1.78-1Z" style="fill:#231f20"/><path d="M207.84,156.62a3.54,3.54,0,0,1,2.42-.43,13.41,13.41,0,0,1,2.4.47c1.55.45,3,1.08,4.47,1.53a30.21,30.21,0,0,0,4.56.93l4.68.57v.24a41.83,41.83,0,0,1-4.75-.06,24.6,24.6,0,0,1-4.73-.79c-1.56-.42-3-1-4.49-1.5a12.53,12.53,0,0,0-2.22-.52c-.75-.09-1.46-.06-2.28-.21Z" style="fill:#231f20"/><path d="M217.61,162.33a2.05,2.05,0,0,1,1.29.14l1.2.35c.8.22,1.6.44,2.41.64s1.63.33,2.45.49l2.48.45v.24a13,13,0,0,1-2.57.06,21.81,21.81,0,0,1-2.54-.34,19.42,19.42,0,0,1-2.5-.62l-1.21-.44a1.86,1.86,0,0,1-1.08-.75Z" style="fill:#231f20"/><path d="M162.07,174.19a4.35,4.35,0,0,1,2.26-1.32,13.42,13.42,0,0,1,2.57-.5,22.21,22.21,0,0,1,5.16.18c1.69.22,3.35.49,5,.68a22.59,22.59,0,0,0,5,0l.05.24A15.16,15.16,0,0,1,177,174c-1.71-.07-3.39-.33-5.06-.51a29.46,29.46,0,0,0-5-.14,13.13,13.13,0,0,0-2.42.39,22.88,22.88,0,0,1-2.38.68Z" style="fill:#231f20"/><path d="M169.43,178.26a6.08,6.08,0,0,1,2.27-1.53,8.1,8.1,0,0,1,2.74-.72,5.14,5.14,0,0,1,2.85.63c.45.26.77.58,1.09.76a2.47,2.47,0,0,0,1.09.28c1.75.1,3.55.1,5.32.07s3.56-.13,5.35-.24l0,.24a38.55,38.55,0,0,1-5.34.75,48.89,48.89,0,0,1-5.42.1,3.31,3.31,0,0,1-1.49-.37c-.46-.26-.79-.56-1.12-.74a4.16,4.16,0,0,0-2.32-.52,7.11,7.11,0,0,0-2.44.57,12,12,0,0,1-2.5.93Z" style="fill:#231f20"/><path d="M175.1,181.84a2.77,2.77,0,0,1,1.46-1,12.45,12.45,0,0,1,1.68-.5,11.61,11.61,0,0,1,3.48-.23,12.45,12.45,0,0,1,3.38.74c1,.34,2.09.78,3.1.35l.12.2a2.58,2.58,0,0,1-1.72.47,7.46,7.46,0,0,1-1.72-.3,14.36,14.36,0,0,0-3.22-.54,14.57,14.57,0,0,0-3.23.25,12.12,12.12,0,0,0-1.58.38,4.11,4.11,0,0,1-1.64.35Z" style="fill:#231f20"/><path d="M179.46,192.31a6.8,6.8,0,0,0-1.32-1.31,4,4,0,0,0-1.75-.57,10.93,10.93,0,0,0-2,0l-2.07.14c-1.38.08-2.76.19-4.15.24s-2.77.1-4.16.07l0-.23c1.37-.24,2.75-.44,4.12-.59s2.76-.28,4.14-.41a21.12,21.12,0,0,1,4.24-.18,4.82,4.82,0,0,1,2.13.8,2.1,2.1,0,0,1,1.06,2Z" style="fill:#231f20"/><path d="M177.41,195.75a1.54,1.54,0,0,1-1-.25,4.63,4.63,0,0,0-.88-.32,6.41,6.41,0,0,0-1.85-.26,9.24,9.24,0,0,0-1.91.31,2.58,2.58,0,0,1-2.14-.26l.11-.21a3.13,3.13,0,0,0,1.84-.26,7,7,0,0,1,2.06-.5,5.49,5.49,0,0,1,2.17.26,6.51,6.51,0,0,1,1,.46,1.18,1.18,0,0,1,.73.84Z" style="fill:#231f20"/><path d="M205.14,254.14a36.09,36.09,0,0,1-8,4,30.56,30.56,0,0,1-6.72,1.2c-3.83.33-7.81.27-11.32-1.28s-6.45-4.89-6.55-8.73,2.41-7,5.37-9.26,6.43-3.68,9.51-5.73,5.92-5,6.48-8.64a5.34,5.34,0,0,0-1.22-4.62c-1.51-1.46-3.94-1.4-6-.77s-3.87,1.72-5.95,2a2.82,2.82,0,0,1-2.24-.41c-.95-.81-.71-2.29-.7-3.53a7.55,7.55,0,0,0-2.8-5.9c-1.35-1.09-3.09-1.7-4.25-3s-1.36-3.75.22-4.47a4.4,4.4,0,0,0-.78,7c1.39,1.14,3.46,1.36,4.57,2.77,1.88,2.41-.35,6.44,1.58,8.81,1.17,1.45,3.4,1.53,5.16.93s3.3-1.74,5.05-2.4c1.35-.51,3.11-.62,4,.49a3.46,3.46,0,0,1,.17,3.46c-1.44,3.54-4.71,4.85-7.59,6.85-3.65,2.53-7.48,5-10.66,8.15-3.79,3.73-6.62,9.08-5.44,14.27a13.42,13.42,0,0,0,7.76,8.86,24.1,24.1,0,0,0,12,1.63,30.45,30.45,0,0,0,5.62-1c1.73-.49,3.41-1.17,5.12-1.74,12.4-4.15,26.45-2.54,38.22-8.27,4.61-2.25,8.63-5.53,12.61-8.78a10.63,10.63,0,0,0,3.07-3.34,3.66,3.66,0,0,0-.48-4.25c-1.35-1.24-4-1.15-4.49-2.91-.45-1.51,1.1-3.45,0-4.54-5.59-5.41-15.83,5.18-19.91,8.18C219.52,244.36,212.57,249.63,205.14,254.14Z" style="fill:#e7ffff"/><path d="M260.37,249c-3.95,2.46-9,2.38-13.2,4.32a3.38,3.38,0,0,0-2.17,2.17c-.32,1.78,1.83,2.91,3.58,3.39,6.38,1.77,13,3.08,19.6,2.12s13-4.56,16-10.48a25.89,25.89,0,0,0,2.16-7.54,67.61,67.61,0,0,0,.79-8.4,158.28,158.28,0,0,1-21.28,4.22A12.07,12.07,0,0,1,260.37,249Z" style="fill:#86abd7"/><path d="M259.59,197.14c.15-.19.31-.37.46-.55a17.82,17.82,0,0,0-5-.76c-5.94-.22-12.24.14-17.21,3.41-4.75,3.13-7.6,8.55-8.82,14.11s-1,11.3-.76,17c.07,1.7.43,3.8,2.05,4.3,1.45.45,2.88-.75,3.73-2,2.33-3.39,3-7.76,5.5-11a12.07,12.07,0,0,1,10.6-4.35l.21-.56C252.76,210.26,255.09,202.49,259.59,197.14Z" style="fill:#86abd7"/><path d="M346.25,158c-.28-.24-.71,0-1,.28q-3.5,3.27-7,6.58l1.86.32c.11,0,.14.47.1,1.22,2.08-2.34,4-4.88,5.84-7.38C346.32,158.75,346.54,158.28,346.25,158Z" style="fill:#bbdcd5"/><path d="M346.16,158.14c-.11-.1-.29,0-.43.09a3.15,3.15,0,0,0-.36.52,5.31,5.31,0,0,1-.89,1l-1.92,1.87c-1.28,1.24-2.57,2.48-3.89,3.68l-.29-1,1.55.29.19,0,.1,0h0a1,1,0,0,1,.24.11l.12.12a.35.35,0,0,1,.06.09,1.13,1.13,0,0,1,.11.38,2.32,2.32,0,0,1,0,.24c0,.3,0,.57,0,.84l-.92-.38c1.17-1.29,2.27-2.65,3.44-4l1.72-2c.29-.33.56-.68.84-1S346.38,158.34,346.16,158.14Zm.18-.21a.68.68,0,0,1,.13.77,3.18,3.18,0,0,1-.36.6l-.74,1.09-1.47,2.2a43.84,43.84,0,0,1-3.25,4.19l-1,1.13.06-1.51c0-.25,0-.5,0-.73v-.15s0-.1,0,0l0,0a.76.76,0,0,0,.09.09.42.42,0,0,0,.2.08h-.12l-.19,0-1.55-.25-1.09-.18.8-.78c1.28-1.25,2.59-2.45,3.9-3.67l2-1.8a5,5,0,0,1,1.06-.83,3.58,3.58,0,0,1,.68-.33A.81.81,0,0,1,346.34,157.93Z" style="fill:#070707"/><path d="M340.15,165.21l-1.86-.32a84.09,84.09,0,0,0-28.22-.23c-19.37,3.4-37.5,17.19-50,31.93-.15.18-.31.36-.46.55-4.5,5.35-6.83,13.12-9.25,19.56l-.21.56-3.2,8.51a2.74,2.74,0,0,0-.25,1.15,2.7,2.7,0,0,0,.55,1.29l6.38,9.89a3,3,0,0,0,3.63,1.75c2.86-.3,5.73-.63,8.58-1a158.28,158.28,0,0,0,21.28-4.22c1.5-.42,3-.87,4.49-1.35,2-.65,3.84-1.53,5.82-2.18a60.88,60.88,0,0,0,31.1-23.66,55,55,0,0,0,8.25-18c.43-1.83,3.25-18.35,3.49-23C340.29,165.68,340.26,165.24,340.15,165.21Z" style="fill:#bbdcd5"/><path d="M311.88,172a17.48,17.48,0,0,0-7.87-1.85,22.57,22.57,0,0,0-10.82,2.28,18.22,18.22,0,0,0-8.09,8.88,24,24,0,0,0-2,7.62c-.61,6.63,2.84,13.16,9.27,15.51,9.33,3.41,21.42-2.68,24.95-11.81C319.86,186.06,318.75,175.71,311.88,172Zm-1.29,20.87c-4.39,6.4-15.22,7.53-20,1a11.3,11.3,0,0,1-1.54-9.45,12.58,12.58,0,0,1,10.27-9.53A11.58,11.58,0,0,1,310.59,192.87Z" style="fill:#86abd7"/><path d="M311.82,172.12a14.63,14.63,0,0,0-6.69-1.48,28.44,28.44,0,0,0-6.84.54,18.48,18.48,0,0,0-6.28,2.55,17,17,0,0,0-4.75,4.81,22,22,0,0,0-2.81,6.2,20.9,20.9,0,0,0-.8,6.74,14.19,14.19,0,0,0,6.48,11.26,16.63,16.63,0,0,0,13.13,1.39,22.33,22.33,0,0,0,11.25-7.46,18.25,18.25,0,0,0,3.73-12.92,17.5,17.5,0,0,0-1.75-6.66A11.91,11.91,0,0,0,311.82,172.12Zm.13-.24a12.17,12.17,0,0,1,4.85,5.05,18.85,18.85,0,0,1,1.92,6.78,21,21,0,0,1-.48,7.06,17.14,17.14,0,0,1-3.05,6.42,22.72,22.72,0,0,1-11.65,7.92,19.72,19.72,0,0,1-7.13.73,15.84,15.84,0,0,1-3.54-.69,13.53,13.53,0,0,1-3.32-1.48,15.31,15.31,0,0,1-7.05-12.11,21.86,21.86,0,0,1,.87-7.12,23.16,23.16,0,0,1,3-6.51,18.17,18.17,0,0,1,5.07-5.08,19.69,19.69,0,0,1,6.65-2.67,22.65,22.65,0,0,1,7.11-.4A19,19,0,0,1,312,171.88Z" style="fill:#070707"/><path d="M310.71,193a16,16,0,0,1-3.24,3.49,11.84,11.84,0,0,1-4.41,1.92,13.25,13.25,0,0,1-9.44-1.13A11.83,11.83,0,0,1,290,194a11,11,0,0,1-1.78-4.55,13.56,13.56,0,0,1,2.15-9.3,12.76,12.76,0,0,1,7.73-5.52c.4-.1.8-.16,1.2-.23l1.21-.08.6,0c.21,0,.41,0,.61,0l1.21.11a12.33,12.33,0,0,1,4.49,1.76,12.26,12.26,0,0,1,5.21,7.77A11.87,11.87,0,0,1,310.71,193Zm-.24-.16a11.77,11.77,0,0,0,1.76-4.22,11.61,11.61,0,0,0,.24-2.28,13.34,13.34,0,0,0-.32-2.27,11.44,11.44,0,0,0-9.37-8.68l-1.12-.07c-.18,0-.37,0-.56,0l-.55.05-1.12.08c-.37.07-.74.13-1.1.22a11.73,11.73,0,0,0-7.06,5.12,12.47,12.47,0,0,0-1.91,8.53,9.63,9.63,0,0,0,1.56,4.09,10.51,10.51,0,0,0,3.23,3,12.3,12.3,0,0,0,8.68,1.09,15,15,0,0,0,4.17-1.66A10,10,0,0,0,310.47,192.79Z" style="fill:#070707"/><path d="M251,214.87c-.22.62-.45,1.24-.67,1.83l-.21.56-3.2,8.51a2.74,2.74,0,0,0-.25,1.15,2.7,2.7,0,0,0,.55,1.29l6.38,9.89a3,3,0,0,0,3.63,1.75c2.86-.3,5.73-.63,8.58-1l2.84-.4A85.6,85.6,0,0,1,251,214.87Z" style="fill:#c8bcbc"/><path d="M281.46,197.69a75.51,75.51,0,0,1-6.7-15.57,115.2,115.2,0,0,0-14.71,14.47c-.15.18-.31.36-.46.55s-.55.67-.81,1a93.9,93.9,0,0,0,9,21,51.47,51.47,0,0,0,15.05,16.53c1.44-.34,2.88-.71,4.31-1.11s3-.87,4.49-1.35c2-.65,3.84-1.53,5.82-2.18a56.83,56.83,0,0,0,9.39-4,32,32,0,0,1-5.78-4.75A112.5,112.5,0,0,1,281.46,197.69Z" style="fill:#86abd7"/><path d="M251,215c-.12.47-.18.9-.25,1.28a4.71,4.71,0,0,1-.12.54l-.19.63c-.25.84-.53,1.67-.82,2.49l-1.81,4.91c-.27.81-.76,1.72-.6,2.2a3.63,3.63,0,0,0,.53,1l.71,1.09,2.86,4.39,2.86,4.39c.47.72.92,1.27,1.58,1.37a9.5,9.5,0,0,0,2.44-.13c3.46-.42,6.93-.74,10.37-1.26l-.28.9a82.59,82.59,0,0,1-9.82-11.15c-1.46-2-2.82-4.07-4.1-6.19-.63-1.06-1.23-2.14-1.82-3.23l-.85-1.64C251.46,216.1,251.27,215.58,251,215Zm0-.28c.32.52.7,1.1,1,1.69L253,218c.63,1,1.29,2.09,1.95,3.13,1.32,2.07,2.75,4.06,4.24,6A88.53,88.53,0,0,0,269,238.05l.77.72-1.05.17c-3.46.55-6.94.9-10.41,1.35a9.94,9.94,0,0,1-2.77.13,2.76,2.76,0,0,1-1.44-.73,5.8,5.8,0,0,1-.9-1.13l-2.82-4.41-2.83-4.41-.7-1.11a4.28,4.28,0,0,1-.66-1.32,2.69,2.69,0,0,1,.18-1.58l.47-1.23,1.87-4.89c.32-.81.66-1.62,1-2.41l.27-.6c.1-.23.21-.47.33-.69Z" style="fill:#070707"/><path d="M284.52,202.69a94.58,94.58,0,0,0-8,27.84,51.24,51.24,0,0,0,4.54,3.92,90.82,90.82,0,0,1,7.4-26.23Q286.4,205.52,284.52,202.69Z" style="fill:#c8bcbc"/><path d="M274.76,182.12q-3.37,2.76-6.47,5.74a67.89,67.89,0,0,0-6,20.33q1.56,3.8,3.45,7.42a147.48,147.48,0,0,1,10-30.52C275.39,184.1,275.06,183.12,274.76,182.12Z" style="fill:#c8bcbc"/><path d="M277.72,190.21a110.76,110.76,0,0,0-9.5,29.77,58,58,0,0,0,4.38,6.24A95.63,95.63,0,0,1,281.1,197Q279.26,193.71,277.72,190.21Z" style="fill:#c8bcbc"/><path d="M301,222.31l-.86-.85a60.57,60.57,0,0,0-3.29,9.82l.54-.2c1.56-.5,3.08-1.08,4.59-1.72a45,45,0,0,1,1.41-4.82C302.59,223.82,301.8,223.07,301,222.31Z" style="fill:#c8bcbc"/><path d="M292.45,213.18a99.88,99.88,0,0,0-6.13,21.64l.78-.21c1.5-.42,3-.87,4.49-1.35.35-.11.7-.24,1-.37a68.49,68.49,0,0,1,4-15.09Q294.46,215.53,292.45,213.18Z" style="fill:#c8bcbc"/><path d="M205.21,254.26a43.84,43.84,0,0,1-6.21,3.38,25.91,25.91,0,0,1-6.87,1.81,39.09,39.09,0,0,1-7.1.39,17.14,17.14,0,0,1-7-1.75,11.75,11.75,0,0,1-5.13-5.12,8.7,8.7,0,0,1-.24-7.24,14.38,14.38,0,0,1,4.45-5.71,41.65,41.65,0,0,1,6-3.78,35.57,35.57,0,0,0,5.85-3.75,12.57,12.57,0,0,0,4-5.4,7.22,7.22,0,0,0,.41-3.24,3.86,3.86,0,0,0-1.43-2.69,4.54,4.54,0,0,0-3-.77,9.92,9.92,0,0,0-3.25.79c-1.08.42-2.16.92-3.33,1.28a10.58,10.58,0,0,1-1.81.4,3.4,3.4,0,0,1-2-.3,2.5,2.5,0,0,1-1.19-1.76,8.53,8.53,0,0,1-.06-1.87,7.13,7.13,0,0,0-2.42-5.9,27.4,27.4,0,0,0-2.9-1.88,8,8,0,0,1-1.47-1.17,4,4,0,0,1-1-1.71,3.79,3.79,0,0,1-.08-2,2.41,2.41,0,0,1,1.33-1.66l.43.89a4,4,0,0,0-1.08,5.75,8.41,8.41,0,0,0,3,1.78,5.93,5.93,0,0,1,1.7,1.13,4.06,4.06,0,0,1,1,1.85,13.51,13.51,0,0,1,.13,3.89,5.09,5.09,0,0,0,.65,3.29,3.31,3.31,0,0,0,2.9,1.21,7.63,7.63,0,0,0,3.36-1,36.09,36.09,0,0,1,3.41-1.69,6.1,6.1,0,0,1,2-.42,3.41,3.41,0,0,1,2.09.53,2.74,2.74,0,0,1,1.17,1.88,4.66,4.66,0,0,1-.18,2.08,9,9,0,0,1-2.06,3.38c-1.86,1.9-4.2,3-6.19,4.41s-4.14,2.82-6.12,4.33a35.49,35.49,0,0,0-5.48,5,18.51,18.51,0,0,0-3.63,6.3,11.35,11.35,0,0,0-.09,7.08,12.37,12.37,0,0,0,4.22,5.73,16.34,16.34,0,0,0,6.59,3,26.5,26.5,0,0,0,7.34.46,29.67,29.67,0,0,0,7.26-1.3c1.17-.38,2.34-.82,3.53-1.24s2.41-.78,3.63-1.09c9.82-2.56,20-2.26,29.59-5.12,1.2-.33,2.35-.79,3.51-1.22s2.28-1,3.37-1.58a50.6,50.6,0,0,0,6.25-4.06c2-1.49,3.94-3.07,5.87-4.66a7.85,7.85,0,0,0,2.26-2.76,3.53,3.53,0,0,0-.19-3.3c-.66-.92-1.95-1.2-3.11-1.71a3.18,3.18,0,0,1-1.58-1.27,2.88,2.88,0,0,1-.17-2,14.8,14.8,0,0,0,.37-1.8,1.38,1.38,0,0,0-.71-1.35,5,5,0,0,0-3.31-1.12c-2.44.07-4.73,1.28-6.82,2.59a60.06,60.06,0,0,0-6,4.49c-1,.8-1.92,1.61-2.93,2.38l-3,2.22-6.08,4.42C213.64,248.82,209.5,251.66,205.21,254.26Zm-.14-.24c4.27-2.61,8.38-5.47,12.43-8.41l6.06-4.45,3-2.24c1-.75,1.93-1.58,2.89-2.38a60.72,60.72,0,0,1,6-4.56,22.45,22.45,0,0,1,3.34-1.81,10.35,10.35,0,0,1,3.73-.89,5.52,5.52,0,0,1,3.66,1.21,2.77,2.77,0,0,1,.72.76,2,2,0,0,1,.2,1.06,14.55,14.55,0,0,1-.37,1.88,2.3,2.3,0,0,0,.12,1.63,2.62,2.62,0,0,0,1.31,1c.56.24,1.16.42,1.75.69a3.76,3.76,0,0,1,1.62,1.19,4.13,4.13,0,0,1,.29,3.9,8.57,8.57,0,0,1-2.43,3c-1.93,1.62-3.86,3.2-5.87,4.73a50.19,50.19,0,0,1-6.31,4.16c-1.11.62-2.28,1.11-3.43,1.63s-2.36.93-3.58,1.27c-9.71,3-19.95,2.76-29.56,5.31-1.21.31-2.38.68-3.56,1.07s-2.35.86-3.56,1.25a30.46,30.46,0,0,1-7.5,1.34,27.8,27.8,0,0,1-7.61-.48,17.35,17.35,0,0,1-7-3.17,13.28,13.28,0,0,1-4.55-6.21,12.33,12.33,0,0,1,.08-7.69,19.7,19.7,0,0,1,3.82-6.65,37.32,37.32,0,0,1,5.64-5.11c2-1.52,4.1-2.92,6.15-4.35s4.38-2.56,6-4.28a8,8,0,0,0,1.83-3,2.43,2.43,0,0,0-.6-2.85,3.66,3.66,0,0,0-3.17,0,35.13,35.13,0,0,0-3.31,1.65,8.71,8.71,0,0,1-3.79,1.11,5.31,5.31,0,0,1-2-.33,3.7,3.7,0,0,1-1.69-1.29,4.15,4.15,0,0,1-.77-2,10.94,10.94,0,0,1-.08-2,12.6,12.6,0,0,0-.1-3.6,3.43,3.43,0,0,0-2.19-2.33,9.13,9.13,0,0,1-3.36-2,4.81,4.81,0,0,1-1-3.94,4.62,4.62,0,0,1,2.34-3.34l.43.9c-.81.34-1,1.51-.71,2.48a3.08,3.08,0,0,0,.76,1.31,7.25,7.25,0,0,0,1.29,1,26.19,26.19,0,0,1,3,2,8.09,8.09,0,0,1,2.76,6.69c-.06,1.15,0,2.32.75,2.72a4.54,4.54,0,0,0,3.05-.18c1.08-.34,2.14-.83,3.25-1.26a11,11,0,0,1,3.57-.86,5.55,5.55,0,0,1,3.67,1,4.91,4.91,0,0,1,1.82,3.36,8.38,8.38,0,0,1-.45,3.7,13.52,13.52,0,0,1-4.29,5.83,35.79,35.79,0,0,1-6,3.86,39.93,39.93,0,0,0-5.91,3.69,13.52,13.52,0,0,0-4.14,5.3,8.39,8.39,0,0,0-.6,3.24,8.09,8.09,0,0,0,.81,3.19,11.1,11.1,0,0,0,4.69,4.71,16.81,16.81,0,0,0,6.58,1.77,38.69,38.69,0,0,0,7-.14,23.9,23.9,0,0,0,6.79-1.58A42.91,42.91,0,0,0,205.07,254Z" style="fill:#070707"/><path d="M260.44,249.15a32.37,32.37,0,0,1-9.25,3.38,19.3,19.3,0,0,0-4.45,1.62,2.26,2.26,0,0,0-1.23,1.5,1.73,1.73,0,0,0,.81,1.62,11.73,11.73,0,0,0,4.35,1.64c1.58.41,3.16.77,4.75,1.06a42.27,42.27,0,0,0,9.64.78,26.12,26.12,0,0,0,9.32-2.08,19.54,19.54,0,0,0,7.56-5.66,15.85,15.85,0,0,0,2.36-4.11,25.74,25.74,0,0,0,1.27-4.63,68.26,68.26,0,0,0,1.06-9.67l.59.46a151.1,151.1,0,0,1-21.37,4l.19-.21a12.93,12.93,0,0,1-1.5,5.88A11.6,11.6,0,0,1,260.44,249.15Zm-.15-.24a11.86,11.86,0,0,0,5.32-10.08v-.18l.18,0A165,165,0,0,0,287,234.16l.61-.17v.63a62.51,62.51,0,0,1-1,9.84,26.44,26.44,0,0,1-1.3,4.82,17.16,17.16,0,0,1-2.49,4.39,20.77,20.77,0,0,1-8,6,26.36,26.36,0,0,1-9.72,2.19,43.08,43.08,0,0,1-9.89-.84c-1.62-.31-3.23-.68-4.82-1.1-.8-.21-1.57-.41-2.4-.66a7.65,7.65,0,0,1-2.34-1.2,3.56,3.56,0,0,1-.93-1.09,2.45,2.45,0,0,1-.25-1.51,3.24,3.24,0,0,1,1.73-2.21,19.45,19.45,0,0,1,4.74-1.72C254.13,250.74,257.49,250.66,260.29,248.91Z" style="fill:#070707"/><path d="M259.48,197l.46-.55.07.24a16.55,16.55,0,0,0-5.57-.52c-1.89,0-3.77.06-5.63.21a22.57,22.57,0,0,0-10.53,3.17,19.33,19.33,0,0,0-6.92,8.42,32.25,32.25,0,0,0-2.56,10.81,98.87,98.87,0,0,0,0,11.29,8.57,8.57,0,0,0,.41,2.63,2,2,0,0,0,1.57,1.45,2.79,2.79,0,0,0,2.09-.95,9.45,9.45,0,0,0,1.54-2.19c1.78-3.21,2.52-7.15,5.16-10.18a12.48,12.48,0,0,1,10.61-4l-.35.22c1.36-3.45,2.58-7,4.07-10.41A38.66,38.66,0,0,1,259.48,197Zm.22.19a37.18,37.18,0,0,0-5.45,9.65c-1.39,3.44-2.52,7-3.8,10.5l-.08.24-.27,0a11.9,11.9,0,0,0-9.85,3.87c-2.37,2.81-3.11,6.65-4.95,10.07a10.22,10.22,0,0,1-1.72,2.44,3.76,3.76,0,0,1-2.94,1.26,2.7,2.7,0,0,1-1.57-.73,3.68,3.68,0,0,1-.88-1.4,9.31,9.31,0,0,1-.49-3,96.83,96.83,0,0,1,0-11.43,32.4,32.4,0,0,1,2.68-11.18,20.3,20.3,0,0,1,7.37-8.85,23.49,23.49,0,0,1,11-3.29,34.26,34.26,0,0,1,5.73,0,22.61,22.61,0,0,1,5.64,1l.21.07-.14.16Z" style="fill:#070707"/><path d="M340.12,165.35A85.33,85.33,0,0,0,323.55,164a76.23,76.23,0,0,0-16.44,1.78,67.11,67.11,0,0,0-15.49,5.79,91.55,91.55,0,0,0-14,8.91,110.1,110.1,0,0,0-12.37,11.07c-1.91,2-3.78,4.07-5.54,6.19a33.33,33.33,0,0,0-4.23,7c-2.31,5-4,10.35-6,15.53l-1.47,3.91-.73,1.94a1.46,1.46,0,0,0,.18,1.55l4.52,7,2.26,3.49a2.49,2.49,0,0,0,1.29,1.12,5.14,5.14,0,0,0,1.88,0l8.28-1c5.5-.74,11-1.68,16.37-3,2.7-.62,5.37-1.38,8-2.19s5.15-2,7.85-2.8A58.52,58.52,0,0,0,312.7,223a62.56,62.56,0,0,0,21-25.25,47.44,47.44,0,0,0,2.75-7.82c.61-2.69,1-5.46,1.51-8.19s.91-5.49,1.32-8.24c.2-1.37.4-2.75.57-4.13.09-.69.16-1.38.22-2.07,0-.34.06-.69.08-1,0-.17,0-.34,0-.51a2,2,0,0,0,0-.25C340.12,165.4,340,165.28,340.12,165.35Zm.05-.27c.17.06.16.15.19.19s0,.11,0,.15,0,.19,0,.28,0,.35,0,.53c0,.35-.05.7-.07,1.05-.06.69-.13,1.39-.21,2.08-.16,1.38-.35,2.76-.54,4.14-.39,2.76-.82,5.51-1.26,8.26s-.86,5.49-1.47,8.23a47.17,47.17,0,0,1-2.72,7.92,63.55,63.55,0,0,1-21,25.69,59.65,59.65,0,0,1-14.9,7.69c-2.61.83-5.12,2.12-7.85,2.84s-5.36,1.59-8.08,2.22c-5.44,1.28-10.95,2.23-16.47,3l-8.3,1a5.82,5.82,0,0,1-2.27,0,3.39,3.39,0,0,1-1.83-1.51l-2.28-3.51-4.53-7a3,3,0,0,1-.46-1.15,2.7,2.7,0,0,1,.19-1.25l.74-2,1.46-3.91c2-5.18,3.67-10.49,6-15.61a34.85,34.85,0,0,1,4.36-7.23c1.8-2.16,3.67-4.22,5.6-6.25A112.08,112.08,0,0,1,277,179.7a93.15,93.15,0,0,1,14.13-9,68,68,0,0,1,15.71-5.87,66.93,66.93,0,0,1,16.68-1.67A107.39,107.39,0,0,1,340.17,165.08Z" style="fill:#070707"/><path d="M281.34,197.76c-1.4-2.47-2.8-4.94-4-7.51a54.17,54.17,0,0,1-3-8l.81.24c-2.9,2.39-5.69,4.93-8.34,7.6q-2,2-3.88,4.1c-1.24,1.4-2.52,2.82-3.64,4.28l.09-.49a94.62,94.62,0,0,0,8.83,20.73,55.14,55.14,0,0,0,6.56,9.11,48.7,48.7,0,0,0,8.39,7.45l-.43-.08c2.06-.54,4.13-1,6.15-1.65,1-.31,2.05-.6,3-.92s2-.74,3-1.13,2-.78,3-1.09,2-.69,3-1.08a57.73,57.73,0,0,0,5.76-2.66l0,.75a40.62,40.62,0,0,1-7.4-6.47q-3.42-3.51-6.59-7.24A104.78,104.78,0,0,1,281.34,197.76Zm.24-.14a96.67,96.67,0,0,0,5.29,8.18c1.9,2.63,3.95,5.15,6.09,7.6s4.38,4.79,6.69,7.07a42,42,0,0,0,7.37,6.21l.65.4-.67.36a59.58,59.58,0,0,1-5.82,2.77c-1,.41-2,.79-3,1.14s-2,.69-3,1.09-2,.8-3,1.16-2.05.63-3.07.94c-2,.66-4.13,1.14-6.2,1.69l-.22.06-.2-.14a50,50,0,0,1-8.6-7.57,56.48,56.48,0,0,1-6.73-9.27,92.47,92.47,0,0,1-8.91-21l-.08-.27.17-.21c1.19-1.54,2.45-2.92,3.72-4.35s2.59-2.77,3.93-4.12q4-4,8.45-7.63l.59-.48.22.73c.79,2.69,1.79,5.32,2.79,8A56.24,56.24,0,0,0,281.58,197.62Z" style="fill:#070707"/><path d="M313.59,209.48a123.77,123.77,0,0,0-10.11,8.15c-.72.7-1.46,1.77-.91,2.61a1.82,1.82,0,0,0,.92.64c5.33,2.07,12.29-4.35,15.58-7.95,9.42-10.32,17.39-26.18,15.62-40.45.4,3.18-1.46,7.35-2.46,10.34a58.09,58.09,0,0,1-4.47,10,55.42,55.42,0,0,1-10.62,13.65C316,207.54,314.81,208.52,313.59,209.48Z" style="fill:#e7ffff"/><path d="M300.24,200.69c-.81-1.65-4.1-.1-2.94,1.45a1.52,1.52,0,0,0,.63.46,1.91,1.91,0,0,0,1.85-.18A1.45,1.45,0,0,0,300.24,200.69Z" style="fill:#c8bcbc"/><path d="M313.49,195c.81-2.44-3.15-2-3,.41a.76.76,0,0,0,.74.84A2.05,2.05,0,0,0,313.49,195Z" style="fill:#c8bcbc"/><path d="M317.24,184.25c-.07-1.83-3.67-.87-3,.84a1.54,1.54,0,0,0,1.85.88A1.76,1.76,0,0,0,317.24,184.25Z" style="fill:#c8bcbc"/><path d="M314.13,177.31c2.74-3.5-5.31-3.24-2.94,0A1.94,1.94,0,0,0,314.13,177.31Z" style="fill:#c8bcbc"/><path d="M304.42,173.59c2.56-1.05-.64-3.82-1.77-1.74C302,173,303.42,174,304.42,173.59Z" style="fill:#c8bcbc"/><path d="M293.35,174a1.07,1.07,0,0,1,.67.54c.64,1.28-1.71,3.18-2.58,1.47C290.68,174.51,292.3,173.66,293.35,174Z" style="fill:#c8bcbc"/><path d="M287.39,184.25v0c1.32-2.61-2.51-1.77-2.53-.24a1.2,1.2,0,0,0,1.12,1.12A1.56,1.56,0,0,0,287.39,184.25Z" style="fill:#c8bcbc"/><path d="M285.81,192.7c3-.7,1.73,4.93-.67,2.4C283.89,193.78,284.68,193,285.81,192.7Z" style="fill:#c8bcbc"/><path d="M235.43,212.54a14.8,14.8,0,0,1,9.43-4.78,3.9,3.9,0,0,1,1.95.17,1.64,1.64,0,0,1,1.05,1.52c-.06.8-.85,1.32-1.56,1.7a52.24,52.24,0,0,0-8.64,5.33,14.63,14.63,0,0,0-5.33,8.35c-.16-2-.75-3.68-.31-5.69A14.62,14.62,0,0,1,235.43,212.54Z" style="fill:#bbdcd5"/><path d="M278,246.38a11.56,11.56,0,0,1-5.17,9.27,21.75,21.75,0,0,1-10.38,3.41c-1.53.15-7.52.07-4.95-2.71,1.29-1.4,4.12-1.12,5.84-1.57A32.75,32.75,0,0,0,278,246.38Z" style="fill:#bbdcd5"/><path d="M250.64,239.49a11.78,11.78,0,0,1-2.63,4.16,33,33,0,0,1-3.51,3.48,34.65,34.65,0,0,1-4,2.93,35.17,35.17,0,0,1-9,4c-1.59.45-3.19.75-4.77,1.07a42.35,42.35,0,0,0-9.24,2.57l-.17-.32a30.54,30.54,0,0,1,9.16-3.37c1.57-.38,3.13-.77,4.65-1.22a35,35,0,0,0,4.45-1.67,37.64,37.64,0,0,0,8-5.07,33.25,33.25,0,0,0,3.46-3.25,32,32,0,0,1,3.33-3.48Z" style="fill:#86abd7"/><path d="M246,230.88a14.55,14.55,0,0,1-3.92,1.79c-1.34.48-2.66,1-4,1.57a30.69,30.69,0,0,0-7.19,4.25,83.38,83.38,0,0,0-6,6,22.61,22.61,0,0,1-6.89,5.26l-.17-.32a30.14,30.14,0,0,0,6.22-5.72,62.89,62.89,0,0,1,5.95-6.31,25.07,25.07,0,0,1,3.59-2.58,35,35,0,0,1,3.93-2c1.35-.55,2.72-1,4.09-1.48a12.21,12.21,0,0,1,4.25-.87Z" style="fill:#86abd7"/><path d="M234.09,241.22a6.22,6.22,0,0,0-2.26,2.73c-.36,1.14.2,2.66,1.38,2.85a3.23,3.23,0,0,0,2.08-.66A359,359,0,0,0,274,219.65a8.85,8.85,0,0,0,2.1-2.13,3.15,3.15,0,0,0,.38-2.86,1.26,1.26,0,0,0-.39-.52,1.37,1.37,0,0,0-1-.12,9.67,9.67,0,0,0-3.41,1.44c-8.65,5.19-17.4,10.82-25.63,16.68C242,235.05,238,238.06,234.09,241.22Z" style="fill:#79a2cc"/><path d="M234.18,241.33a5.58,5.58,0,0,0-2.1,2.64c-.3,1,.29,2.3,1.15,2.39s1.85-.73,2.86-1.3l3-1.85q6-3.72,11.91-7.63c3.92-2.61,7.81-5.29,11.62-8.06s7.59-5.58,11.28-8.51a6,6,0,0,0,2.05-2.46,2.52,2.52,0,0,0,.1-1.43,1.32,1.32,0,0,0-.25-.52.58.58,0,0,0-.44-.08,7.79,7.79,0,0,0-3.05,1.18l-3,1.82c-4,2.45-8.05,4.92-12,7.48s-7.92,5.12-11.76,7.87S238,238.51,234.18,241.33Zm-.17-.22c3.74-2.88,7.52-5.72,11.24-8.63s7.66-5.54,11.57-8.19,7.91-5.18,11.95-7.64l3-1.84a8.82,8.82,0,0,1,3.5-1.34,1.56,1.56,0,0,1,1.23.36,2.09,2.09,0,0,1,.56,1,3.51,3.51,0,0,1-.11,2.06,6.83,6.83,0,0,1-2.38,2.94q-5.53,4.46-11.29,8.61c-3.83,2.76-7.74,5.43-11.69,8s-8,5.13-12,7.59l-3,1.84c-.51.31-1,.61-1.54.91a2.9,2.9,0,0,1-2,.38,2.14,2.14,0,0,1-1.46-1.46,2.84,2.84,0,0,1,0-1.93A7.14,7.14,0,0,1,234,241.11Z" style="fill:#070707"/><path d="M261.76-15.48a21,21,0,0,0,2.86-6.74c.41-1.43,1.48-3.24,2.87-2.69a2.3,2.3,0,0,1,.9.74,11,11,0,0,1,2.49,5.83c.19,1.7.33,3.94,2,4.37a3.43,3.43,0,0,0,1.56,0l8.4-1.52c.94,2.11-1.34,4.21-3.39,5.29s-4.52,2.68-4.15,5a6.82,6.82,0,0,0,1.23,2.45A11.9,11.9,0,0,1,278.37,3,29.34,29.34,0,0,1,269,.47c-1.33-.6-2.76-1.32-4.18-.95A5.88,5.88,0,0,0,262.61.9L255.49,7c-1.15-2,.08-4.47,1.09-6.54s1.69-4.94-.11-6.39c-1.27-1-3.1-.74-4.71-1s-3.31-2-2.35-3.34a2.67,2.67,0,0,1,1.34-.85C254.78-12.59,258.91-11.59,261.76-15.48Z" style="fill:#d7cbb5"/><path d="M261.61-15.59a11.81,11.81,0,0,0,1.76-3.85c.2-.69.36-1.38.52-2.08l.24-1.07a6.44,6.44,0,0,1,.41-1.11,4.14,4.14,0,0,1,.66-1,2.62,2.62,0,0,1,1.14-.83,2.08,2.08,0,0,1,1.57.11,3.35,3.35,0,0,1,1,.88,11.87,11.87,0,0,1,2.18,4,11.44,11.44,0,0,1,.47,2.24,15.49,15.49,0,0,0,.31,2,2.43,2.43,0,0,0,.77,1.44,1.84,1.84,0,0,0,1.53.14l8.51-1.57.57-.1.23.53a3.27,3.27,0,0,1,.25,1.8,4.19,4.19,0,0,1-.63,1.6,8.25,8.25,0,0,1-2.22,2.19,12.52,12.52,0,0,1-1.29.77c-.4.22-.8.45-1.17.7a7.16,7.16,0,0,0-1.92,1.67,2.24,2.24,0,0,0-.41,2,13.84,13.84,0,0,0,1.32,2.32A12.87,12.87,0,0,1,279.11,3l0,.85-.85-.09a29.7,29.7,0,0,1-6.53-1.4,30.85,30.85,0,0,1-3.11-1.22,8.63,8.63,0,0,0-2.84-1,3.32,3.32,0,0,0-2.45,1l-2.49,2.11-5,4.23-.6.5-.37-.67a4.47,4.47,0,0,1-.49-2.61,8.58,8.58,0,0,1,.66-2.41c.3-.75.66-1.46,1-2.14a10.7,10.7,0,0,0,.77-2.06c.38-1.39.29-3-.81-3.75s-2.73-.63-4.31-.9a4.08,4.08,0,0,1-2.2-1.22,2.86,2.86,0,0,1-.67-1.13,1.75,1.75,0,0,1,.16-1.36,2.12,2.12,0,0,1,1-.87,8.55,8.55,0,0,1,1.13-.41,18.65,18.65,0,0,1,2.3-.53A34.92,34.92,0,0,0,258-13a8.45,8.45,0,0,0,2-1A7.83,7.83,0,0,0,261.61-15.59Zm.3.22a8.11,8.11,0,0,1-1.66,1.7,8.66,8.66,0,0,1-2.11,1.1,32.55,32.55,0,0,1-4.58,1,16.53,16.53,0,0,0-2.23.56c-.71.24-1.48.51-1.75,1.07a1.47,1.47,0,0,0,.47,1.73,3.35,3.35,0,0,0,1.83,1c.73.1,1.5.1,2.3.16a5,5,0,0,1,2.41.74A3.43,3.43,0,0,1,258-4.17a5.92,5.92,0,0,1-.08,2.52,10.67,10.67,0,0,1-.79,2.31c-.34.71-.67,1.39-.94,2.09-.54,1.37-.82,2.85-.15,4l-1-.17L260,2.25,262.49.11A7.2,7.2,0,0,1,264-.9a3.81,3.81,0,0,1,1.93-.36,9.59,9.59,0,0,1,3.33,1.07,31.42,31.42,0,0,0,3,1.15,29,29,0,0,0,6.23,1.29l-.8.77A11.3,11.3,0,0,0,276.12-2a14.14,14.14,0,0,1-1.47-2.62A3.81,3.81,0,0,1,275.27-8a8.64,8.64,0,0,1,2.34-2.05c.42-.27.85-.51,1.28-.74A11.66,11.66,0,0,0,280-11.5a6.62,6.62,0,0,0,1.82-1.75,2,2,0,0,0,.29-2l.81.43-8.52,1.51a4.43,4.43,0,0,1-1.25.1,2.69,2.69,0,0,1-1.37-.5,3.75,3.75,0,0,1-1.29-2.25,16.94,16.94,0,0,1-.33-2.23,10.32,10.32,0,0,0-.4-2,10.54,10.54,0,0,0-1.91-3.55c-.43-.55-.77-.7-1.12-.59a2.53,2.53,0,0,0-1.12,1.18,11.8,11.8,0,0,0-.79,1.89q-.37,1-.81,2A20,20,0,0,1,261.91-15.37Z" style="fill:#050827"/><path d="M280.43,8.2a1.05,1.05,0,0,1,1,.56l.65.82c.41.56.79,1.13,1.15,1.72a15.06,15.06,0,0,1,1.84,3.78l-.33.23a15.1,15.1,0,0,1-2.84-3.1c-.42-.56-.81-1.13-1.18-1.71l-.52-.9a1,1,0,0,1-.14-1.17Z" style="fill:#d7cbb5"/><path d="M262.54,12a.82.82,0,0,1,.57.87c0,.3.06.6.06.9a9,9,0,0,1-.15,1.79,7.16,7.16,0,0,1-1.31,3.34l-.39-.12a21.17,21.17,0,0,1,.11-3.41c0-.56.07-1.11.11-1.66l.08-.82a.83.83,0,0,1,.52-.86Z" style="fill:#d7cbb5"/><path d="M251.56,7.83A1.14,1.14,0,0,1,251.34,9l-.57.94c-.4.62-.81,1.23-1.24,1.82a23.18,23.18,0,0,1-2.76,3.5l-.35-.19a13.4,13.4,0,0,1,1.76-4.17,19.83,19.83,0,0,1,1.24-1.89l.71-.88a1.16,1.16,0,0,1,1.11-.58Z" style="fill:#d7cbb5"/><path d="M93.89,227c-7.45-6.95-15.83,4.54-9.37,11.09,2.4,2.44,6.73,2.84,9.3.58a7.23,7.23,0,0,0,1.88-2.74A8.26,8.26,0,0,0,93.89,227Z" style="fill:#6aa4ca"/><path d="M141.57,179.55c-4.94-4.61-10.49,3-6.21,7.35a4.4,4.4,0,0,0,7.41-1.44A5.45,5.45,0,0,0,141.57,179.55Z" style="fill:#c5cbbf"/><path d="M227.78,299.54c-4.93-4.61-10.48,3-6.2,7.35a4.66,4.66,0,0,0,6.16.38,5,5,0,0,0,1.25-1.81A5.47,5.47,0,0,0,227.78,299.54Z" style="fill:#9ab7df"/><path d="M408.9,324.31c-3.56-3.32-7.56,2.17-4.47,5.31a3.36,3.36,0,0,0,4.44.27,3.42,3.42,0,0,0,.9-1.31A4,4,0,0,0,408.9,324.31Z" style="fill:#c4bdf1"/><path d="M172.79,280c-3.56-3.32-7.57,2.17-4.48,5.3a3.18,3.18,0,0,0,5.35-1A4,4,0,0,0,172.79,280Z" style="fill:#b1afd6"/><path d="M211.8,89.27c-3-2.76-6.28,1.8-3.72,4.39a2.79,2.79,0,0,0,3.69.23,2.92,2.92,0,0,0,.75-1.08A3.28,3.28,0,0,0,211.8,89.27Z" style="fill:#edffff"/><path d="M201.79,97.5c-3.56-3.32-7.56,2.17-4.47,5.3a3.35,3.35,0,0,0,4.44.28,3.42,3.42,0,0,0,.9-1.31A4,4,0,0,0,201.79,97.5Z" style="fill:#a4c3d8"/><path d="M371.58,211c-6.47-6-13.75,3.94-8.13,9.64a6.1,6.1,0,0,0,8.07.5,6.24,6.24,0,0,0,1.64-2.38A7.15,7.15,0,0,0,371.58,211Z" style="fill:#d8b889"/><path d="M42.29,329.45c-6.47-6-13.75,3.94-8.13,9.64a6.09,6.09,0,0,0,8.07.5,6.24,6.24,0,0,0,1.64-2.38A7.15,7.15,0,0,0,42.29,329.45Z" style="fill:#97d5bc"/><path d="M181.76,77.29c-12.84-12-27.27,7.81-16.14,19.1,4.14,4.2,11.59,4.89,16,1a12.77,12.77,0,0,0,3.25-4.72A14.23,14.23,0,0,0,181.76,77.29Z" style="fill:#c4bdf1"/><path d="M72,211.73c-5.48-.72-5.37,6.38-.62,7.08a4.11,4.11,0,0,0,4.54-4A3.93,3.93,0,0,0,71,211.33" style="fill:#d7cbb5"/><path d="M173.6,217.88c-.92-3.26-5.92-2.44-6.36.63-.34,2.36,2.31,4,4.36,3.21A3.28,3.28,0,0,0,173.6,217.88Z" style="fill:#d8b889"/><path d="M219.94,291.71c-.93-3.26-5.93-2.44-6.36.62-.34,2.37,2.31,4,4.36,3.22A3.3,3.3,0,0,0,219.94,291.71Z" style="fill:#90796b"/><path d="M175.42,205.35c-.93-3.27-5.93-2.45-6.37.62-.33,2.36,2.31,4,4.37,3.22A3.3,3.3,0,0,0,175.42,205.35Z" style="fill:#9ab7df"/><path d="M186.86,229.15c-.92-3.26-5.92-2.44-6.36.62-.34,2.37,2.31,4,4.36,3.22A3.28,3.28,0,0,0,186.86,229.15Z" style="fill:#90796b"/><path d="M221.05,339.56c-.92-3.26-5.92-2.44-6.36.62-.33,2.37,2.31,4,4.36,3.22A3.28,3.28,0,0,0,221.05,339.56Z" style="fill:#c4bdf1"/><path d="M351.21,120.94c-4.94-4.6-10.49,3-6.21,7.35a4.41,4.41,0,0,0,7.41-1.43A5.49,5.49,0,0,0,351.21,120.94Z" style="fill:#9ab7df"/><path d="M361.56,31.83C358,28.51,354,34,357.09,37.13a3.35,3.35,0,0,0,4.44.28,3.42,3.42,0,0,0,.9-1.31A3.94,3.94,0,0,0,361.56,31.83Z" style="fill:#b1afd6"/><path d="M408.72,43.52c-.93-3.26-5.93-2.44-6.37.62-.33,2.37,2.31,4,4.37,3.22A3.3,3.3,0,0,0,408.72,43.52Z" style="fill:#90796b"/><path d="M301.85,35.43c-.92-3.27-5.92-2.45-6.36.62-.34,2.36,2.31,4,4.36,3.22A3.28,3.28,0,0,0,301.85,35.43Z" style="fill:#c4bdf1"/><path d="M332,322.92c-.92-3.27-5.92-2.45-6.36.62-.34,2.36,2.31,4,4.36,3.22A3.28,3.28,0,0,0,332,322.92Z" style="fill:#6aa4ca"/><path d="M396.89,332c-.92-3.27-5.92-2.45-6.36.62-.33,2.36,2.31,4,4.37,3.22A3.29,3.29,0,0,0,396.89,332Z" style="fill:#97d5bc"/><path d="M65.25,99.38c.21,4.63.81,9.57,3.82,13.09,2.62,3.08,6.62,4.16,10.92,3.83a14.75,14.75,0,0,0-11.25,6.47c-2.41,3.85-3.21,8.49-3.5,13a27.84,27.84,0,0,0-.39-8.88,11.92,11.92,0,0,0-4.78-7.29c-3-2-6.87-2-10.37-1.94,3.53-.58,8.44-.73,11.26-3.16C64.94,111.08,65.47,104.24,65.25,99.38Z" style="fill:#abe4d5"/><path d="M291.65,264.78c.21,4.63.81,9.57,3.82,13.09a11.71,11.71,0,0,0,10.92,3.83c-4.54-.3-8.84,2.62-11.25,6.47s-3.21,8.49-3.5,13a27.9,27.9,0,0,0-.39-8.89,11.92,11.92,0,0,0-4.78-7.29c-3.05-2-6.87-2-10.37-1.94,3.53-.58,8.44-.72,11.26-3.16C291.34,276.48,291.87,269.64,291.65,264.78Z" style="fill:#d7cbb5"/><path d="M124.44,300.3c-.16-.42-.34-.84-.53-1.24a14.44,14.44,0,0,0-2.07-3.23c-3.35-3.94-10.72-6.84-15.91-5.47A13.75,13.75,0,0,0,99.85,294a18.12,18.12,0,0,0-5.17,9.91,16.89,16.89,0,0,0-.12,2.46,17.23,17.23,0,0,0,.44,3.43,16.27,16.27,0,0,0,3.32,6.69,11.71,11.71,0,0,0,4.34,3.37,13.94,13.94,0,0,0,5.24.9,28.35,28.35,0,0,0,7.16-.86,14.12,14.12,0,0,0,6.14-3,11.65,11.65,0,0,0,2.5-3.37c.14-.26.27-.52.39-.79a15.67,15.67,0,0,0,1-2.88A16.9,16.9,0,0,0,124.44,300.3Z" style="fill:#70aad2"/><path d="M124.32,300.34a12.75,12.75,0,0,0-3.36-4.92,19.1,19.1,0,0,0-5-3.26,18.79,18.79,0,0,0-5.72-1.61,11.25,11.25,0,0,0-5.75.78,13.94,13.94,0,0,0-4.74,3.47,17.59,17.59,0,0,0-3.32,4.9A14.57,14.57,0,0,0,95,305.39a16.35,16.35,0,0,0,.85,5.85,15.46,15.46,0,0,0,2.89,5.14,10.8,10.8,0,0,0,4.72,3.36,17,17,0,0,0,5.89.61,27.92,27.92,0,0,0,6-.86,14.08,14.08,0,0,0,5.38-2.48,12.29,12.29,0,0,0,3.42-4.84A16.52,16.52,0,0,0,124.32,300.34Zm.23-.08a17.26,17.26,0,0,1,0,12.06,12.89,12.89,0,0,1-3.44,5.12,14.44,14.44,0,0,1-5.55,2.74,28,28,0,0,1-6.1,1,17.42,17.42,0,0,1-6.2-.6A11.66,11.66,0,0,1,98.1,317,16.36,16.36,0,0,1,95,311.53a17,17,0,0,1-.93-6.17,15.5,15.5,0,0,1,1.49-6.07,18.33,18.33,0,0,1,3.52-5.15,15.05,15.05,0,0,1,5.07-3.66,12,12,0,0,1,6.21-.81,19.36,19.36,0,0,1,6,1.71,16.37,16.37,0,0,1,5.12,3.52A16.9,16.9,0,0,1,124.55,300.26Z" style="fill:#050827"/><path d="M143.33,306.67c-.41-4.89-9-6-12.5-6.66a59.94,59.94,0,0,0-6.92-.95c.19.4.37.82.53,1.24a16.65,16.65,0,0,1,9.32,4.12,2.41,2.41,0,0,1-.56,4.08c-2.22,1.29-5.39,1.46-8.16,1.43l-2.05-.05a99.14,99.14,0,0,1-10.45-1.05c-6-.82-12-1.65-18-2.43l-1.62-.21c-2.45-.33-5-.7-7-2.16-1.24-.91-2.24-2.46-1.83-3.94A4.1,4.1,0,0,1,85.75,298c2.2-1.6,4.83-1.72,7.44-2a50.64,50.64,0,0,1,5.23-.33A17.88,17.88,0,0,1,99.85,294a71.06,71.06,0,0,0-16.94.49c-3.68.64-9.3,3-7.11,7.92,1.72,3.87,9.66,5.11,13.18,6,2,.51,4,1,6,1.37q5.55,1.13,11.18,1.78c5.73.65,11.63,1.74,17.52,2,1,0,2,.06,3,0C130.75,313.6,143.9,313.55,143.33,306.67Z" style="fill:#e5f2fb"/><path d="M143.21,306.68a4.4,4.4,0,0,0-1.1-2.39,7.43,7.43,0,0,0-2.17-1.58,21.81,21.81,0,0,0-5.2-1.62c-1.79-.34-3.63-.63-5.42-.95s-3.62-.52-5.44-.66l.41-.6.54,1.27-.35-.27a18.78,18.78,0,0,1,5.16,1.39,14.42,14.42,0,0,1,4.51,2.93A2.89,2.89,0,0,1,135,307a3.53,3.53,0,0,1-2,2.09,13.75,13.75,0,0,1-5.23,1.2,64.88,64.88,0,0,1-10.53-.43c-3.48-.42-6.93-.92-10.39-1.38l-10.38-1.4c-1.73-.24-3.45-.45-5.2-.71a13.35,13.35,0,0,1-5.1-1.68,6,6,0,0,1-2-1.95,3.54,3.54,0,0,1-.45-2.85,4.52,4.52,0,0,1,1.76-2.23,8.89,8.89,0,0,1,2.44-1.23,26.9,26.9,0,0,1,5.24-.91,48.89,48.89,0,0,1,5.27-.33l-.33.16,1.46-1.62.27.72a83.24,83.24,0,0,0-12.73,0,31.11,31.11,0,0,0-6.21,1,12.15,12.15,0,0,0-2.81,1.29,5.17,5.17,0,0,0-2,2.13,3.78,3.78,0,0,0-.1,2.81,4.75,4.75,0,0,0,1.68,2.37,17.31,17.31,0,0,0,5.64,2.6c2,.61,4.11,1,6.2,1.56s4.14,1,6.22,1.42c4.18.87,8.39,1.48,12.63,2s8.45,1.26,12.7,1.61a66.24,66.24,0,0,0,12.75-.13,20.84,20.84,0,0,0,6.13-1.59,6.61,6.61,0,0,0,2.46-1.88A4.25,4.25,0,0,0,143.21,306.68Zm.24,0a4.52,4.52,0,0,1-.86,3.1,6.88,6.88,0,0,1-2.55,2,21,21,0,0,1-6.21,1.66,67.07,67.07,0,0,1-12.83.23c-4.27-.32-8.49-1-12.72-1.5s-8.5-1-12.7-1.86c-2.09-.43-4.18-.92-6.27-1.38s-4.16-.9-6.24-1.5a18.08,18.08,0,0,1-5.94-2.69,5.55,5.55,0,0,1-2-2.77,4.63,4.63,0,0,1,.14-3.43A6,6,0,0,1,77.62,296a13.13,13.13,0,0,1,3-1.38A32.1,32.1,0,0,1,87,293.57a83.64,83.64,0,0,1,12.86,0l.87.05-.6.67-1.39,1.54-.14.16h-.18a49.5,49.5,0,0,0-5.18.33,25.22,25.22,0,0,0-5.07.87A7.78,7.78,0,0,0,86,298.34a3.79,3.79,0,0,0-1.46,1.79,2.73,2.73,0,0,0,.37,2.17A5.12,5.12,0,0,0,86.6,304a12.53,12.53,0,0,0,4.78,1.56c1.71.25,3.45.46,5.18.7l10.38,1.41c6.93.87,13.82,2.17,20.75,1.8a13.3,13.3,0,0,0,4.92-1.11,2.71,2.71,0,0,0,1.54-1.58,2,2,0,0,0-.62-2,13.5,13.5,0,0,0-4.22-2.75,18.28,18.28,0,0,0-4.92-1.32l-.25,0-.1-.24-.51-1.21-.28-.66.69.06a53.52,53.52,0,0,1,5.51.7c1.83.36,3.62.69,5.43,1.14a22.49,22.49,0,0,1,5.23,1.91,8.56,8.56,0,0,1,2.22,1.71A4.76,4.76,0,0,1,143.45,306.66Z" style="fill:#050827"/><path d="M129.86,127.85a11.15,11.15,0,0,1-1.52-3.58c-.22-.76-.79-1.72-1.52-1.43a1.23,1.23,0,0,0-.49.39,5.88,5.88,0,0,0-1.32,3.09c-.1.91-.17,2.1-1.05,2.33a1.94,1.94,0,0,1-.83,0l-4.46-.81c-.5,1.13.71,2.24,1.8,2.81s2.4,1.43,2.2,2.64a3.46,3.46,0,0,1-.65,1.3,6.41,6.41,0,0,0-1,3.09,15.91,15.91,0,0,0,5-1.33,3.47,3.47,0,0,1,2.21-.51,3,3,0,0,1,1.18.74l3.79,3.24c.61-1.06,0-2.37-.58-3.47s-.9-2.62.06-3.39c.67-.54,1.64-.39,2.5-.54s1.75-1.07,1.25-1.77a1.52,1.52,0,0,0-.72-.46C133.57,129.38,131.37,129.91,129.86,127.85Z" style="fill:#d7cbb5"/><path d="M129.78,127.91a11.32,11.32,0,0,1-1.14-2c-.32-.69-.53-1.51-.85-2.08a1.27,1.27,0,0,0-.6-.63c-.18-.06-.36,0-.59.31a5.57,5.57,0,0,0-1,1.89,22.2,22.2,0,0,0-.39,2.23,2,2,0,0,1-.69,1.2,1.7,1.7,0,0,1-1.39.22l-4.52-.81L119,128c-.33.67.36,1.49,1.12,2a8.39,8.39,0,0,1,2.53,1.85,2,2,0,0,1,.33,1.78,7.32,7.32,0,0,1-.78,1.39,6.11,6.11,0,0,0-.81,2.69l-.42-.41a15.7,15.7,0,0,0,3.31-.68,15.05,15.05,0,0,0,1.57-.62,5.33,5.33,0,0,1,1.77-.56,2,2,0,0,1,1,.19,3.92,3.92,0,0,1,.79.54l1.32,1.13,2.62,2.28-.51.09a2.47,2.47,0,0,0-.08-2.1,14.63,14.63,0,0,1-.93-2.34,3.35,3.35,0,0,1,0-1.34,1.84,1.84,0,0,1,.75-1.17,5.61,5.61,0,0,1,2.5-.48,1.81,1.81,0,0,0,1-.5.81.81,0,0,0,.25-.92c-.15-.3-.56-.44-.93-.57a9.42,9.42,0,0,0-1.19-.3,16.22,16.22,0,0,1-2.43-.52A4.11,4.11,0,0,1,129.78,127.91Zm.16-.12a3.88,3.88,0,0,0,1.92,1.39,18.2,18.2,0,0,0,2.4.48,10.26,10.26,0,0,1,1.22.28,1.81,1.81,0,0,1,1.13.68,1.13,1.13,0,0,1-.27,1.32,2.14,2.14,0,0,1-1.17.65c-.84.15-1.71,0-2.29.48a1.82,1.82,0,0,0-.43,2,14.9,14.9,0,0,0,1,2.23,3.07,3.07,0,0,1,.08,2.67l-.19.36-.32-.27-2.65-2.24L129,136.68a1.8,1.8,0,0,0-1.3-.55,4.65,4.65,0,0,0-1.51.51,15.76,15.76,0,0,1-1.65.66,16.37,16.37,0,0,1-3.47.74l-.45.05,0-.46a6.84,6.84,0,0,1,.9-3,7.41,7.41,0,0,0,.7-1.23,1.22,1.22,0,0,0-.22-1.06,3.87,3.87,0,0,0-1-.89c-.39-.26-.85-.46-1.31-.78a4.33,4.33,0,0,1-1.18-1.16,1.89,1.89,0,0,1-.2-1.81l.13-.28.3.06,4.51.83a1,1,0,0,0,.82-.07,1.35,1.35,0,0,0,.41-.77,20.53,20.53,0,0,1,.41-2.28,6.23,6.23,0,0,1,1.16-2.13,1.68,1.68,0,0,1,.54-.46,1.07,1.07,0,0,1,.84-.06,1.82,1.82,0,0,1,.95,1,4.93,4.93,0,0,1,.35,1.16c.08.37.17.74.27,1.1A6.17,6.17,0,0,0,129.94,127.79Z" style="fill:#050827"/><path d="M119.15,118.73a.76.76,0,0,1-.41-.38,3.11,3.11,0,0,0-.35-.42,9.78,9.78,0,0,1-.75-1c-.24-.33-.5-.65-.71-1a5.19,5.19,0,0,1-.59-1.09l.16-.13a5.62,5.62,0,0,1,1,.79c.3.29.56.6.83.9s.54.61.79.93a4.45,4.45,0,0,1,.36.58.58.58,0,0,1-.06.77Z" style="fill:#d7cbb5"/><path d="M113.86,124.68a.81.81,0,0,1-.75-.13l-.61-.32c-.41-.21-.81-.44-1.21-.67l-1.23-.65a11.78,11.78,0,0,1-1.21-.73l.08-.2a6,6,0,0,1,1.4.3,12.76,12.76,0,0,1,1.33.54,10.19,10.19,0,0,1,1.27.66l.6.39a.78.78,0,0,1,.44.63Z" style="fill:#d7cbb5"/><path d="M114.21,133.16a.87.87,0,0,1-.65.48l-.72.24c-.48.15-1,.29-1.46.4s-1,.25-1.48.34a10.89,10.89,0,0,1-1.52.19l-.06-.21a8.68,8.68,0,0,1,1.39-.64c.48-.19,1-.33,1.44-.49s1-.3,1.45-.42l.74-.17a.85.85,0,0,1,.81.07Z" style="fill:#d7cbb5"/><path d="M120.12,140.55a.55.55,0,0,1-.07.61l-.28.48c-.19.31-.41.62-.63.91s-.44.59-.69.86a5.06,5.06,0,0,1-.81.79l-.18-.12a4.92,4.92,0,0,1,.43-1.05c.16-.33.37-.64.55-.95s.39-.63.61-.93l.34-.43a.57.57,0,0,1,.55-.3Z" style="fill:#d7cbb5"/><path d="M129.66,142.46a.45.45,0,0,1,.27.46l0,.44c0,.29.05.58.06.88l.06.88a4.82,4.82,0,0,1,0,.93l-.2.06a2.48,2.48,0,0,1-.46-.84,4.36,4.36,0,0,1-.23-.93,3.78,3.78,0,0,1-.09-1,3.87,3.87,0,0,1,0-.48.43.43,0,0,1,.3-.46Z" style="fill:#d7cbb5"/><path d="M135.45,140.1a.59.59,0,0,1,.58.31l.38.46a8.26,8.26,0,0,1,.65,1,10.72,10.72,0,0,1,.56,1.06,5,5,0,0,1,.39,1.15l-.19.1a5.47,5.47,0,0,1-.78-.9c-.25-.31-.45-.64-.68-1s-.45-.63-.66-1l-.31-.5a.63.63,0,0,1-.12-.64Z" style="fill:#d7cbb5"/><path d="M140.56,131.9c.05-.31.18-.33.31-.38l.37-.14a4.15,4.15,0,0,1,.77-.2,6.86,6.86,0,0,1,.79-.14,2.9,2.9,0,0,1,.83,0l.05.21a3,3,0,0,1-.7.44,6.77,6.77,0,0,1-.75.28,3.93,3.93,0,0,1-.76.23l-.39.07c-.13,0-.26.08-.46-.17Z" style="fill:#d7cbb5"/><path d="M137.2,123.71a.39.39,0,0,1,.16-.49l.33-.29a4.41,4.41,0,0,1,.74-.47,5.75,5.75,0,0,1,.8-.36,2.54,2.54,0,0,1,.88-.15l.08.2a3.72,3.72,0,0,1-.65.56c-.22.17-.45.31-.68.47s-.44.31-.67.46l-.35.21a.4.4,0,0,1-.5,0Z" style="fill:#d7cbb5"/><path d="M129.07,119.13a.41.41,0,0,1-.19-.49l.06-.43a6.45,6.45,0,0,1,.21-.84c.08-.27.15-.55.26-.82a3.35,3.35,0,0,1,.42-.79l.21,0a3.34,3.34,0,0,1,0,.89c0,.29-.08.57-.12.86a8,8,0,0,1-.17.85l-.14.41c0,.14-.06.28-.37.35Z" style="fill:#d7cbb5"/><path d="M383.56,2c-.55-1-1.3-1.81-1.85-2.77-3.5-6.1,1.52-15.5-3.78-20.13-2-1.74-4.84-2-7.48-1.42a13.08,13.08,0,0,0-2.07.64c-3.12,1.27-5.76,3.46-8.69,5.13a28,28,0,0,1-7.25,2.84,28.47,28.47,0,0,1-15.66-.66c-1.92-.65-3.85-1.52-5.88-1.44-4.48.16-7.41,4.65-9.28,8.72C320-3.46,318.48.36,318.46,4.33s1.68,8.17,5.11,10.18c4,2.35,9.31,1.24,13.45,3.38,3.34,1.73,5.35,5.27,8.39,7.49,4.28,3.14,11.38,3.22,15.48-.38s4.71-8.08,10.87-9.67c3.84-1,8.2-1.45,10.84-4.41A7.91,7.91,0,0,0,383.56,2Z" style="fill:#9b8170"/><path d="M383.39,2.11c-.48-.83-1.12-1.59-1.68-2.43A12.26,12.26,0,0,1,381-1.66c-.22-.46-.36-.95-.54-1.43a22.53,22.53,0,0,1-.63-6c0-2,.13-4,0-5.85a13.07,13.07,0,0,0-.18-1.4c-.09-.46-.22-.89-.35-1.33a6.38,6.38,0,0,0-1.39-2.27,6.35,6.35,0,0,0-4.83-1.95,12,12,0,0,0-5.4,1.31c-3.42,1.67-6.46,4.41-10.25,6a29.72,29.72,0,0,1-11.83,2.43,29.16,29.16,0,0,1-6-.65,29.67,29.67,0,0,1-2.94-.8c-1-.32-1.88-.68-2.79-1a9.45,9.45,0,0,0-2.68-.47,6.48,6.48,0,0,0-2.55.57,10.52,10.52,0,0,0-4,3.69A28.73,28.73,0,0,0,321.8-5.7a36.81,36.81,0,0,0-2,5.46,17.68,17.68,0,0,0-.61,5.63,12.49,12.49,0,0,0,1.6,5.32,8.66,8.66,0,0,0,4,3.65,19.62,19.62,0,0,0,5.56,1.25,24,24,0,0,1,6,1.24,14.06,14.06,0,0,1,5,3.63,42.4,42.4,0,0,0,4.12,4.14,10.1,10.1,0,0,0,2.4,1.45,12,12,0,0,0,2.69.84c3.7.73,7.87,0,10.61-2.72a36.07,36.07,0,0,0,3.75-4.5,12.32,12.32,0,0,1,4.61-3.88,31.63,31.63,0,0,1,5.77-1.56,17.45,17.45,0,0,0,5.45-2,8,8,0,0,0,2.13-1.92,7.72,7.72,0,0,0,.57-8.19Zm.33-.18a8,8,0,0,1,.73,5.89,8,8,0,0,1-1.28,2.74,8.54,8.54,0,0,1-2.23,2c-3.45,2.22-7.7,2.22-11.2,3.78a11.59,11.59,0,0,0-4.29,3.77,36.88,36.88,0,0,1-3.73,4.67,11.43,11.43,0,0,1-5.32,3,14.43,14.43,0,0,1-6.1.2,13.42,13.42,0,0,1-3-.88,11.12,11.12,0,0,1-2.68-1.58,44.88,44.88,0,0,1-4.29-4.19,13.08,13.08,0,0,0-4.54-3.28A22.78,22.78,0,0,0,330.2,17a20.51,20.51,0,0,1-6-1.33,10.07,10.07,0,0,1-4.64-4.2,13.68,13.68,0,0,1-1.81-5.92,19.18,19.18,0,0,1,.63-6.1,35.63,35.63,0,0,1,2-5.69,29.92,29.92,0,0,1,2.86-5.34A12,12,0,0,1,328-15.84a7.86,7.86,0,0,1,3.18-.72,10.44,10.44,0,0,1,3.14.53c1,.3,1.9.67,2.82,1s1.83.56,2.77.77a27.54,27.54,0,0,0,5.72.63,27.9,27.9,0,0,0,11.25-2.27c3.56-1.45,6.53-4.11,10.22-5.92a13.54,13.54,0,0,1,6-1.43,7.79,7.79,0,0,1,5.81,2.41,7.73,7.73,0,0,1,1.68,2.75c.14.51.3,1,.39,1.53a13.77,13.77,0,0,1,.19,1.54A41.12,41.12,0,0,1,381-9a21.22,21.22,0,0,0,.11,5.8c.13.46.22.94.39,1.38a11.92,11.92,0,0,0,.62,1.3C382.58.28,383.23,1,383.72,1.93Z" style="fill:#050827"/><path d="M344.41,1.84a4.87,4.87,0,0,0,0-2.9A6,6,0,0,0,344-2.3a3.5,3.5,0,0,0-.79-1A7.52,7.52,0,0,0,338-4.72a13.43,13.43,0,0,0-5.59,1.47,7.15,7.15,0,0,0-3.76,4,6.13,6.13,0,0,0-.47,2.69,3.75,3.75,0,0,0,1.12,2.3,6.41,6.41,0,0,0,5.16,1.66,17.63,17.63,0,0,0,5.79-1.46A7.46,7.46,0,0,0,344.41,1.84Zm.35.13a8.76,8.76,0,0,1-4.25,4.5,18.58,18.58,0,0,1-2.89,1.26,15.76,15.76,0,0,1-3.08.76,9.12,9.12,0,0,1-3.28-.18,6.52,6.52,0,0,1-2.95-1.65,5.15,5.15,0,0,1-1.55-3.11,7.48,7.48,0,0,1,.5-3.35,9.76,9.76,0,0,1,.7-1.52A8.62,8.62,0,0,1,329-2.66a10.51,10.51,0,0,1,2.66-2,14.85,14.85,0,0,1,6.25-1.6,11.66,11.66,0,0,1,3.26.33,6.73,6.73,0,0,1,3,1.57,4.2,4.2,0,0,1,1.42,3.15A11.78,11.78,0,0,1,344.76,2Z" style="fill:#050827"/><path d="M337.13,12.17a2.73,2.73,0,0,1,1.75-.34,15.28,15.28,0,0,0,1.66-.15,16.6,16.6,0,0,0,3.26-.76,19.12,19.12,0,0,0,5.86-3.41l.28.24a11.19,11.19,0,0,1-5.63,4.56,12.72,12.72,0,0,1-3.6.87,14.43,14.43,0,0,1-1.86,0,7,7,0,0,1-.92-.11,1.89,1.89,0,0,1-.86-.55Z" style="fill:#050827"/><path d="M370.5-.12a10.88,10.88,0,0,1,2.44-.5,3.79,3.79,0,0,1,2.44,1,4.45,4.45,0,0,1,1.33,2.37,5.9,5.9,0,0,1-1.3,5,7.48,7.48,0,0,1-2,1.64,13.12,13.12,0,0,1-4.67,1.51,9.46,9.46,0,0,1-2.5.06,4.72,4.72,0,0,1-2.46-1,4,4,0,0,1-1.6-2.18,3.53,3.53,0,0,1,.46-2.67,10.72,10.72,0,0,1,3.55-3.27A18.06,18.06,0,0,1,370.5-.12Zm.09.36a12.51,12.51,0,0,0-4,2.15,9.89,9.89,0,0,0-2.9,3.28,2.43,2.43,0,0,0-.22,1.8,2.88,2.88,0,0,0,1.16,1.44,5,5,0,0,0,3.93.56,11.78,11.78,0,0,0,4.1-1.39,5.09,5.09,0,0,0,2.51-3,3.59,3.59,0,0,0-.73-3.6,4.17,4.17,0,0,0-1.69-.91A3.47,3.47,0,0,0,370.59.24Z" style="fill:#050827"/><path d="M357.74,4.45a2.56,2.56,0,0,1-.12,1.81,16.42,16.42,0,0,0-.39,1.65,8.62,8.62,0,0,0-.13,3.19,4.67,4.67,0,0,0,1.48,2.61,3.51,3.51,0,0,0,2.87,1l.12.36a3,3,0,0,1-1.91.32,4.26,4.26,0,0,1-1.83-.75,5.63,5.63,0,0,1-2.18-3.26,8.16,8.16,0,0,1,.11-3.81,17,17,0,0,1,.56-1.75,2.33,2.33,0,0,1,1.07-1.51Z" style="fill:#050827"/><path d="M416.94,130.66c-.15-.42-.33-.84-.52-1.24a14.44,14.44,0,0,0-2.07-3.23c-3.35-3.94-10.72-6.84-15.92-5.47a13.78,13.78,0,0,0-6.07,3.67,16.44,16.44,0,0,0-1.43,1.58,17.77,17.77,0,0,0-3.74,8.33,15.6,15.6,0,0,0-.12,2.46,17.23,17.23,0,0,0,.44,3.43,16.37,16.37,0,0,0,3.31,6.69,11.82,11.82,0,0,0,4.35,3.37,13.94,13.94,0,0,0,5.24.9,28.35,28.35,0,0,0,7.16-.86,14.18,14.18,0,0,0,6.14-3,11.65,11.65,0,0,0,2.5-3.37c.14-.26.27-.52.39-.79a16.46,16.46,0,0,0,.95-2.88A16.81,16.81,0,0,0,416.94,130.66Z" style="fill:#70aad2"/><path d="M416.83,130.7a12.75,12.75,0,0,0-3.36-4.92,19.42,19.42,0,0,0-10.68-4.87,11.25,11.25,0,0,0-5.75.78,13.94,13.94,0,0,0-4.74,3.47,17.59,17.59,0,0,0-3.32,4.9,14.57,14.57,0,0,0-1.43,5.69,16.35,16.35,0,0,0,.85,5.85,15.46,15.46,0,0,0,2.89,5.14A10.74,10.74,0,0,0,396,150.1a17,17,0,0,0,5.89.61,27.92,27.92,0,0,0,6-.86,14.08,14.08,0,0,0,5.38-2.48,12.29,12.29,0,0,0,3.42-4.84A16.52,16.52,0,0,0,416.83,130.7Zm.23-.08a17.32,17.32,0,0,1,0,12.06,12.89,12.89,0,0,1-3.44,5.12,14.48,14.48,0,0,1-5.56,2.74,28.55,28.55,0,0,1-6.1,1,17.63,17.63,0,0,1-6.19-.61,11.66,11.66,0,0,1-5.13-3.6,16.36,16.36,0,0,1-3.08-5.43,17,17,0,0,1-.93-6.17,15.33,15.33,0,0,1,1.49-6.07,18.33,18.33,0,0,1,3.52-5.15,15.05,15.05,0,0,1,5.07-3.66,12,12,0,0,1,6.21-.81,19.44,19.44,0,0,1,6,1.71,16.37,16.37,0,0,1,5.12,3.52A16.9,16.9,0,0,1,417.06,130.62Z" style="fill:#050827"/><path d="M435.84,137c-.41-4.89-9-6-12.5-6.66a59.94,59.94,0,0,0-6.92-1c.19.4.37.82.52,1.24a16.65,16.65,0,0,1,9.33,4.12,2.42,2.42,0,0,1-.57,4.08c-2.21,1.29-5.38,1.46-8.15,1.43l-2.05,0a96.55,96.55,0,0,1-10.45-1.05c-6-.82-12-1.65-18-2.43l-1.62-.21c-2.46-.33-5-.69-7-2.16-1.25-.91-2.24-2.46-1.83-3.94a4.1,4.1,0,0,1,1.66-2.11c2.2-1.6,4.83-1.72,7.44-2a50.64,50.64,0,0,1,5.23-.33,16.44,16.44,0,0,1,1.43-1.58,71.06,71.06,0,0,0-16.94.49c-3.68.64-9.3,3-7.11,7.92,1.72,3.87,9.65,5.11,13.18,6,2,.51,4,1,6,1.37q5.55,1.13,11.18,1.78c5.73.65,11.63,1.74,17.52,2,1,0,2,.06,3,0C423.26,144,436.41,143.91,435.84,137Z" style="fill:#e5f2fb"/><path d="M435.72,137a4.47,4.47,0,0,0-1.1-2.39,7.43,7.43,0,0,0-2.17-1.58,21.81,21.81,0,0,0-5.2-1.62c-1.79-.34-3.63-.63-5.42-.95s-3.62-.52-5.45-.66l.42-.6.54,1.27-.35-.27a18.78,18.78,0,0,1,5.16,1.39,14.26,14.26,0,0,1,4.5,2.93,2.87,2.87,0,0,1,.82,2.8,3.53,3.53,0,0,1-2,2.09,13.75,13.75,0,0,1-5.23,1.2,64.88,64.88,0,0,1-10.53-.43c-3.48-.42-6.93-.92-10.39-1.38L389,137.44c-1.73-.24-3.45-.45-5.2-.71a13.29,13.29,0,0,1-5.1-1.68,6,6,0,0,1-2-2,3.51,3.51,0,0,1-.45-2.85A4.52,4.52,0,0,1,378,128a8.75,8.75,0,0,1,2.44-1.23,26.9,26.9,0,0,1,5.24-.91,51.59,51.59,0,0,1,5.27-.33l-.33.16,1.46-1.62.27.72a83.24,83.24,0,0,0-12.73,0,31.11,31.11,0,0,0-6.21,1,12.15,12.15,0,0,0-2.81,1.29,5.17,5.17,0,0,0-2,2.13,3.78,3.78,0,0,0-.1,2.81,4.69,4.69,0,0,0,1.68,2.37,17.31,17.31,0,0,0,5.64,2.6c2,.61,4.11,1,6.2,1.56s4.14,1,6.22,1.42c4.18.87,8.38,1.48,12.63,2s8.45,1.25,12.7,1.6a66.25,66.25,0,0,0,12.75-.13,20.39,20.39,0,0,0,6.12-1.59,6.57,6.57,0,0,0,2.47-1.88A4.25,4.25,0,0,0,435.72,137Zm.23,0a4.46,4.46,0,0,1-.85,3.1,6.78,6.78,0,0,1-2.55,2,21,21,0,0,1-6.21,1.66,67.07,67.07,0,0,1-12.83.23c-4.27-.32-8.49-1-12.73-1.5s-8.49-1-12.69-1.86c-2.09-.43-4.18-.92-6.27-1.38s-4.17-.9-6.24-1.5a18.08,18.08,0,0,1-5.94-2.69,5.55,5.55,0,0,1-2-2.77,4.68,4.68,0,0,1,.13-3.43,6.17,6.17,0,0,1,2.32-2.48,13.13,13.13,0,0,1,3-1.38,32.1,32.1,0,0,1,6.39-1.08,83.64,83.64,0,0,1,12.86,0l.87,0-.6.67-1.39,1.54-.14.16h-.18a49.5,49.5,0,0,0-5.18.33,25.22,25.22,0,0,0-5.07.87,8,8,0,0,0-2.21,1.11,3.73,3.73,0,0,0-1.46,1.79,2.73,2.73,0,0,0,.37,2.17,5.12,5.12,0,0,0,1.72,1.68,12.53,12.53,0,0,0,4.78,1.56c1.71.25,3.45.46,5.18.7L399.45,138c6.93.87,13.82,2.17,20.75,1.8a13.3,13.3,0,0,0,4.92-1.11,2.71,2.71,0,0,0,1.54-1.58,2,2,0,0,0-.62-2,13.5,13.5,0,0,0-4.22-2.75,18.35,18.35,0,0,0-4.93-1.32l-.24,0-.1-.24L416,129.6l-.28-.66.69.06a53.52,53.52,0,0,1,5.51.7c1.83.36,3.61.69,5.42,1.14a22.4,22.4,0,0,1,5.24,1.91,8.73,8.73,0,0,1,2.22,1.71A4.67,4.67,0,0,1,436,137Z" style="fill:#050827"/><path d="M420.72,267.8q1.18,5.67,2,11.41a38,38,0,0,0,11.52,2.6,105.28,105.28,0,0,1-11.18,6.9l1.88,7.67a28.64,28.64,0,0,1-8.61-7.68c-3.62,2.34-7.33,4.57-11.09,6.68l4.73-9.88a2,2,0,0,0,.28-1.3,2,2,0,0,0-.82-1l-9.93-7.49a73.9,73.9,0,0,1,14.86.77c2.41.36,2.52-.46,3.54-2.5C418.45,272.85,421,269,420.72,267.8Z" style="fill:#afcee2"/><path d="M413.8,293.24a12.79,12.79,0,0,1-.82,4,12.48,12.48,0,0,1-2,3.62,14.07,14.07,0,0,1,2.77-7.65Z" style="fill:#afcee2"/><path d="M417.57,295a5.34,5.34,0,0,1,.66,5.16,6,6,0,0,1-.84-2.52A6.16,6.16,0,0,1,417.57,295Z" style="fill:#afcee2"/><path d="M416,271.55a9.93,9.93,0,0,1-.93-3.07,10.15,10.15,0,0,1,0-3.21,7.2,7.2,0,0,1,.94,6.28Z" style="fill:#afcee2"/><path d="M411.91,273.68a7.54,7.54,0,0,1-2.27-1.5A7.39,7.39,0,0,1,408,270a5.19,5.19,0,0,1,4,3.66Z" style="fill:#afcee2"/><path d="M405.28,282.65a5.5,5.5,0,0,1-3.07-.45,5.55,5.55,0,0,1-2.43-1.91,9.74,9.74,0,0,1,2.91.81A10.46,10.46,0,0,1,405.28,282.65Z" style="fill:#afcee2"/><path d="M406.24,286a9.44,9.44,0,0,1-3.53.52,9.66,9.66,0,0,1-3.51-.69,9.45,9.45,0,0,1,3.54-.51A9.63,9.63,0,0,1,406.24,286Z" style="fill:#afcee2"/><path d="M409.82,267.56a39.09,39.09,0,0,1-1.14-9.34,43.2,43.2,0,0,1,1.11-9.4,40.26,40.26,0,0,1,23.51-28.17,43,43,0,0,1,9.05-2.77,38.53,38.53,0,0,1,9.4-.54,41.92,41.92,0,0,0-9.28,1.12,42.5,42.5,0,0,0-8.79,3,42.66,42.66,0,0,0-24.41,36.74A42.33,42.33,0,0,0,409.82,267.56Z" style="fill:#afcee2"/><path d="M414.27,262.24a21,21,0,0,1,1.08-8.66,33.52,33.52,0,0,1,3.86-7.91,39.7,39.7,0,0,1,12.8-12,48.59,48.59,0,0,1,16.56-5.82,61.15,61.15,0,0,1,8.75-.76,66.93,66.93,0,0,1,8.73.47,84.3,84.3,0,0,0-8.71.11,63.93,63.93,0,0,0-8.61,1.09,49.57,49.57,0,0,0-16.11,5.94A40.24,40.24,0,0,0,420,246.19a33.78,33.78,0,0,0-4.06,7.59A22.23,22.23,0,0,0,414.27,262.24Z" style="fill:#afcee2"/><path d="M419.49,264.51a24.89,24.89,0,0,1,1.14-5.24,29.66,29.66,0,0,1,9.13-13.2,34.94,34.94,0,0,1,19.72-7.88,48.76,48.76,0,0,0-10.07,3.26,38.42,38.42,0,0,0-8.88,5.53,34.4,34.4,0,0,0-6.9,7.84,31.4,31.4,0,0,0-2.46,4.66A30,30,0,0,0,419.49,264.51Z" style="fill:#afcee2"/><path d="M58.49,54.54a13,13,0,0,1,3.93-.13,7.71,7.71,0,0,1,3.8,1.36,5.11,5.11,0,0,1,1.33,1.66,2.78,2.78,0,0,1,.13,2.28,4.16,4.16,0,0,1-1.42,1.69,9.54,9.54,0,0,1-1.77,1,31.14,31.14,0,0,1-7.6,2,27.08,27.08,0,0,1-7.9.26,9.53,9.53,0,0,1-4-1.37,5.37,5.37,0,0,1-2.37-3.67,5.74,5.74,0,0,1,.87-4.3,9.89,9.89,0,0,1,3.15-2.78A21,21,0,0,1,50.35,51c1.24-.43,2.47-.82,3.72-1.19q3.74-1.11,7.57-1.86a72.79,72.79,0,0,1,15.52-1.42c1.32,0,2.6.09,3.93.22a12.5,12.5,0,0,1,4,1,7.44,7.44,0,0,1,4.15,7.13,13.09,13.09,0,0,1-3.16,7.53,14.28,14.28,0,0,1-1.43,1.48c-.51.42-1,.87-1.53,1.28s-1.06.79-1.61,1.16-1.11.73-1.67,1.06A55.72,55.72,0,0,1,65.26,73c-2.52.65-5.05,1.19-7.59,1.68S52.59,75.67,50,76a54.68,54.68,0,0,1-15.65.16A30.11,30.11,0,0,1,26.71,74a18,18,0,0,1-6.57-4.72,9.92,9.92,0,0,1-2-3.77,8.54,8.54,0,0,1,0-4.29,11.31,11.31,0,0,1,1.77-3.8,21.81,21.81,0,0,1,2.7-3A44.71,44.71,0,0,1,36,46.16a130,130,0,0,1,14.72-5,139.39,139.39,0,0,1,30.52-5.49,60.23,60.23,0,0,1,15.62.65,30.45,30.45,0,0,1,7.53,2.51A25.8,25.8,0,0,1,107.79,41a13.28,13.28,0,0,1,2.85,3,10.44,10.44,0,0,1,1.64,3.86,9.39,9.39,0,0,1-.2,4.22,18.1,18.1,0,0,1-4.17,6.89,49.74,49.74,0,0,1-12.42,9.52,116.28,116.28,0,0,1-14,6.81A128.29,128.29,0,0,1,66.78,80.1a299.88,299.88,0,0,1-30.33,6.12q-7.65,1.17-15.34,2a72.67,72.67,0,0,1-15.54.39A38.86,38.86,0,0,1,1.7,88a24.78,24.78,0,0,1-3.81-1,10.64,10.64,0,0,1-3.5-2.06,7,7,0,0,1-2.12-3.57A10.77,10.77,0,0,1-6.16,73.5c.72-1.11,1.48-2.15,2.21-3.22s1.61-2,2.41-3.06a81.58,81.58,0,0,1,24.35-19,132.29,132.29,0,0,1,28.85-11l.12.46A132,132,0,0,0,23.21,49c-9,4.91-17.36,11.1-23.91,18.94-.78,1-1.64,2-2.35,3S-4.52,73-5.19,74.08a9.69,9.69,0,0,0-1.4,7A5.79,5.79,0,0,0-4.81,84,9.55,9.55,0,0,0-1.68,85.8a22.67,22.67,0,0,0,3.62,1c1.24.24,2.5.44,3.76.56A71.59,71.59,0,0,0,21,86.84q7.65-.84,15.27-2a301.36,301.36,0,0,0,30.12-6.26,134,134,0,0,0,14.54-4.86A113.42,113.42,0,0,0,94.63,67a48.33,48.33,0,0,0,12-9.2,16.34,16.34,0,0,0,3.77-6.19,7.66,7.66,0,0,0-1.21-6.6,10.91,10.91,0,0,0-2.46-2.57c-.46-.37-1-.68-1.52-1s-1.08-.6-1.62-.9a28.44,28.44,0,0,0-7.08-2.34,58.37,58.37,0,0,0-15.13-.59A137.51,137.51,0,0,0,51.24,43a127.52,127.52,0,0,0-14.5,4.94A42.93,42.93,0,0,0,24,55.85a19.87,19.87,0,0,0-2.45,2.71,9.46,9.46,0,0,0-1.48,3.15,7,7,0,0,0,1.58,6.36,15.91,15.91,0,0,0,5.86,4.2,28.41,28.41,0,0,0,7.16,2,52.72,52.72,0,0,0,15.1-.14c2.53-.33,5-.79,7.56-1.27s5-1,7.48-1.65a54,54,0,0,0,14.12-5.42c.54-.32,1.06-.67,1.59-1s1-.73,1.52-1.09a18.25,18.25,0,0,0,2.68-2.49,11.29,11.29,0,0,0,2.76-6.44,6,6,0,0,0-.75-3.23,6.49,6.49,0,0,0-1-1.31,5.34,5.34,0,0,0-1.36-.92c-2.07-1-4.7-1-7.22-1.09A70.77,70.77,0,0,0,62,49.59c-2.5.49-5,1.09-7.42,1.81a32.67,32.67,0,0,0-7,2.68A8.11,8.11,0,0,0,45,56.34a4,4,0,0,0-.66,3.06,3.75,3.75,0,0,0,1.65,2.65,8.22,8.22,0,0,0,3.28,1.15,26.78,26.78,0,0,0,7.47-.14A29.84,29.84,0,0,0,64,61.33a5,5,0,0,0,2.68-2c.44-.87-.21-2.08-1-2.84a6.92,6.92,0,0,0-3.33-1.35,13.09,13.09,0,0,0-3.75-.1Z" style="fill:#fff"/><path d="M117.34,62.76a36.29,36.29,0,0,1-1.22,13.44,52.42,52.42,0,0,1,.24-6.76A52.74,52.74,0,0,1,117.34,62.76Z" style="fill:#fff"/><path d="M111.24,69.2a30.3,30.3,0,0,1,5.77-.88,29.28,29.28,0,0,1,5.84.11,29.71,29.71,0,0,1-5.77.88A29.25,29.25,0,0,1,111.24,69.2Z" style="fill:#fff"/><path d="M106.46,28.27c-3.27-1-6.64-.89-8.49,2.29a2.86,2.86,0,0,0-.5,1.5,2.05,2.05,0,0,0,1.1,1.6,4.8,4.8,0,0,0,1.94.53c2.53.28,5.38-.1,7.07-2a2.53,2.53,0,0,0,.62-2.79A2.88,2.88,0,0,0,106.46,28.27Z" style="fill:#9b8170"/><path d="M75.88,20.36c0-3.59-6.57-2.19-8.17-.62-.94.92-1.19,2.68-.14,3.49a3.18,3.18,0,0,0,1.87.49,15.76,15.76,0,0,0,2.28-.11,6.52,6.52,0,0,0,2.74-.86A2.94,2.94,0,0,0,75.88,20.36Z" style="fill:#97d5bc"/><path d="M94.92,9.57c-.41-1.93-7.92-2-6.66,1.1.38,1,1.7,1,2.73.91l1.45-.15a4.25,4.25,0,0,0,1.7-.41A1.44,1.44,0,0,0,94.92,9.57Z" style="fill:#70aad2"/><path d="M31,30.79c-2.86-1.2-11.36,2.53-8.21,6.32,1,1.2,2.9,1,4.4.58a19.74,19.74,0,0,0,2.69-1c1.28-.58,2.64-1.46,2.9-2.85A2.88,2.88,0,0,0,31,30.79Z" style="fill:#9b8170"/><path d="M11,45.32c-2.26-.26-5.16.76-6.4,2.74-.39.62-.76,1.49-.25,2a1.47,1.47,0,0,0,.9.38,10.07,10.07,0,0,0,5.66-.67,4.21,4.21,0,0,0,2-1.47,2,2,0,0,0-.06-2.3A2.75,2.75,0,0,0,11,45.32Z" style="fill:#d8b889"/><path d="M6.17,19.32c.56-4.47-5.48-.17-6.11,2.23A1.27,1.27,0,0,0,.2,22.74,1.22,1.22,0,0,0,.77,23,4.57,4.57,0,0,0,6.17,19.32Z" style="fill:#70aad2"/><path d="M76.41,91.93a3.93,3.93,0,0,0-2.08,2.8.5.5,0,0,0,.1.4.6.6,0,0,0,.41.16,16.69,16.69,0,0,0,8.46-1.24,3.91,3.91,0,0,0,2.25-1.86c.56-1.37-.86-2.18-1.49-3A17.35,17.35,0,0,0,76.41,91.93Z" style="fill:#70aad2"/><path d="M15.91,103a3.36,3.36,0,0,0-.87,3,3.3,3.3,0,0,0,2.46,2.2,7.47,7.47,0,0,0,3.42-.09,22,22,0,0,0,3.28-1c1.4-.53,2.95-1.48,3-3,.08-2.06-3.15-3.69-4.92-3.91C20.18,100,17.28,101.48,15.91,103Z" style="fill:#9b8170"/><path d="M14,77.06c1.14-3.86-11-4.07-9.29,1,.46,1.32,2.15,1.71,3.54,1.63a11.22,11.22,0,0,0,4.07-1A2.88,2.88,0,0,0,14,77.06Z" style="fill:#70aad2"/><path d="M36.36,63.59a4.58,4.58,0,0,0-5.46,1,1.11,1.11,0,0,0-.21,1.19,1.09,1.09,0,0,0,.57.39c1.53.57,3.23,0,4.76-.53.47-.16,1-.4,1.1-.89S36.79,63.83,36.36,63.59Z" style="fill:#9ab7df"/><path d="M122.38,88.42c1.52-2.39-3.2-2.08-4.1-2a4.7,4.7,0,0,0-2.15.83,1.42,1.42,0,0,0-.63.63,1.11,1.11,0,0,0,.4,1.23,2.91,2.91,0,0,0,1.29.47,6.91,6.91,0,0,0,4.55-.57A1.79,1.79,0,0,0,122.38,88.42Z" style="fill:#97d5bc"/><path d="M45.46,16a4.86,4.86,0,0,1,1.21,1.46,6.65,6.65,0,0,1,.7,1.68,6.79,6.79,0,0,1,.24,1.8,4.85,4.85,0,0,1-.31,1.88,6.7,6.7,0,0,1-1-1.6,10.06,10.06,0,0,1-.59-1.64,10.54,10.54,0,0,1-.31-1.71A6.57,6.57,0,0,1,45.46,16Z" style="fill:#fce6d2"/><path d="M43.23,20.83a4.4,4.4,0,0,1,1.3-1.25,6,6,0,0,1,1.55-.74,5.72,5.72,0,0,1,1.69-.3,4.35,4.35,0,0,1,1.79.26,6,6,0,0,1-1.45,1,9.85,9.85,0,0,1-1.51.63,9.3,9.3,0,0,1-1.6.36A6.13,6.13,0,0,1,43.23,20.83Z" style="fill:#fce6d2"/><path d="M15.12,137c-.41-4.89-9-6-12.5-6.66a59.64,59.64,0,0,0-6.92-1c.19.4.37.82.53,1.24a16.68,16.68,0,0,1,9.33,4.12A2.42,2.42,0,0,1,5,138.86c-2.22,1.29-5.39,1.46-8.15,1.43l-2,0a96.48,96.48,0,0,1-10.46-1.05c-6-.82-12-1.65-18-2.43l-1.63-.21c-2.45-.33-5-.69-7-2.16-1.24-.91-2.23-2.46-1.83-3.94a4.1,4.1,0,0,1,1.66-2.11c2.2-1.6,4.83-1.72,7.44-2a50.81,50.81,0,0,1,5.23-.33,19.59,19.59,0,0,1,1.43-1.58,71,71,0,0,0-16.93.49c-3.68.64-9.31,3-7.12,7.92,1.73,3.87,9.66,5.11,13.18,6,2,.51,4,1,6,1.37Q-27.66,141.32-22,142c5.73.65,11.64,1.74,17.53,2,1,0,2,.06,3,0C2.54,144,15.69,143.91,15.12,137Z" style="fill:#e5f2fb"/><path d="M15,137a4.4,4.4,0,0,0-1.1-2.39,7.43,7.43,0,0,0-2.17-1.58,21.81,21.81,0,0,0-5.2-1.62c-1.78-.34-3.63-.63-5.42-.95s-3.62-.52-5.44-.66l.41-.6.54,1.27-.34-.27a18.8,18.8,0,0,1,5.15,1.39,14.31,14.31,0,0,1,4.51,2.93,2.9,2.9,0,0,1,.82,2.8,3.59,3.59,0,0,1-2,2.09,13.84,13.84,0,0,1-5.24,1.2A64.88,64.88,0,0,1-11,140.22c-3.48-.42-6.93-.92-10.39-1.38l-10.38-1.4c-1.73-.24-3.45-.45-5.2-.71a13.4,13.4,0,0,1-5.1-1.68,6,6,0,0,1-2-2,3.58,3.58,0,0,1-.45-2.85A4.58,4.58,0,0,1-42.74,128a8.89,8.89,0,0,1,2.44-1.23,26.9,26.9,0,0,1,5.24-.91,51.59,51.59,0,0,1,5.27-.33l-.33.16,1.46-1.62.27.72a83.24,83.24,0,0,0-12.73,0,31.11,31.11,0,0,0-6.21,1,11.89,11.89,0,0,0-2.8,1.29,5.27,5.27,0,0,0-2,2.13,3.83,3.83,0,0,0-.1,2.81,4.75,4.75,0,0,0,1.68,2.37,17.41,17.41,0,0,0,5.64,2.6c2,.61,4.12,1,6.2,1.56s4.14,1,6.23,1.42c4.17.87,8.38,1.48,12.63,2s8.45,1.25,12.69,1.6a66.23,66.23,0,0,0,12.75-.13,20.53,20.53,0,0,0,6.13-1.59A6.53,6.53,0,0,0,14.17,140,4.25,4.25,0,0,0,15,137Zm.24,0a4.42,4.42,0,0,1-.86,3.1,6.78,6.78,0,0,1-2.55,2,21,21,0,0,1-6.21,1.66A67,67,0,0,1-7.2,144c-4.27-.32-8.5-1-12.73-1.5s-8.5-1-12.69-1.86c-2.1-.43-4.18-.92-6.28-1.38s-4.16-.9-6.23-1.5a18,18,0,0,1-5.95-2.69,5.55,5.55,0,0,1-2-2.77,4.63,4.63,0,0,1,.14-3.43,6.08,6.08,0,0,1,2.31-2.48,13.13,13.13,0,0,1,3-1.38,32.08,32.08,0,0,1,6.4-1.08,83.64,83.64,0,0,1,12.86,0l.86,0-.6.67-1.39,1.54-.14.16h-.18a49.85,49.85,0,0,0-5.18.33,25.22,25.22,0,0,0-5.07.87,8,8,0,0,0-2.21,1.11,3.71,3.71,0,0,0-1.45,1.79,2.65,2.65,0,0,0,.37,2.17,5.09,5.09,0,0,0,1.71,1.68,12.53,12.53,0,0,0,4.78,1.56c1.71.25,3.46.46,5.18.7L-21.27,138c6.93.87,13.83,2.17,20.76,1.8A13.29,13.29,0,0,0,4.4,138.7,2.76,2.76,0,0,0,6,137.12a2,2,0,0,0-.63-2A13.39,13.39,0,0,0,1.1,132.4a18.28,18.28,0,0,0-4.92-1.32l-.25,0-.1-.24-.51-1.21-.28-.66.69.06a54.07,54.07,0,0,1,5.52.7c1.82.36,3.61.69,5.42,1.14a22.49,22.49,0,0,1,5.23,1.91,8.39,8.39,0,0,1,2.22,1.71A4.68,4.68,0,0,1,15.24,137Z" style="fill:#050827"/><path d="M0,267.8q1.2,5.67,2,11.41a38,38,0,0,0,11.52,2.6,104.28,104.28,0,0,1-11.18,6.9l1.88,7.67a28.48,28.48,0,0,1-8.6-7.68q-5.44,3.51-11.1,6.68l4.73-9.88a2,2,0,0,0,.28-1.3,2,2,0,0,0-.82-1l-9.93-7.49a73.9,73.9,0,0,1,14.86.77c2.41.36,2.53-.46,3.54-2.5C-2.27,272.85.25,269,0,267.8Z" style="fill:#afcee2"/><path d="M7.22,276.81a5.71,5.71,0,0,1,2.6-.94,5.71,5.71,0,0,1,2.75.25,5.71,5.71,0,0,1-2.6.94A6,6,0,0,1,7.22,276.81Z" style="fill:#afcee2"/><path d="M10.09,288.69a3.55,3.55,0,0,1,2.13.21,3.48,3.48,0,0,1,1.68,1.32,3.63,3.63,0,0,1-2.13-.21A3.59,3.59,0,0,1,10.09,288.69Z" style="fill:#afcee2"/><path d="M8,293.12a4.56,4.56,0,0,1,2.25.83,4.4,4.4,0,0,1,1.57,1.82,4.41,4.41,0,0,1-2.25-.83A4.47,4.47,0,0,1,8,293.12Z" style="fill:#afcee2"/><path d="M-10.9,267.56A39.08,39.08,0,0,1-12,258.22a42.58,42.58,0,0,1,1.1-9.4A41.51,41.51,0,0,1-2.57,231.9a41.53,41.53,0,0,1,15.16-11.25,42.84,42.84,0,0,1,9.05-2.77,38.5,38.5,0,0,1,9.4-.54,41.77,41.77,0,0,0-9.28,1.12,42.3,42.3,0,0,0-8.79,3A41.75,41.75,0,0,0-10,249a42.57,42.57,0,0,0-1.41,9.19A43,43,0,0,0-10.9,267.56Z" style="fill:#afcee2"/><path d="M-6.45,262.24a21.3,21.3,0,0,1,1.08-8.66,33.91,33.91,0,0,1,3.86-7.91,39.8,39.8,0,0,1,12.8-12,48.64,48.64,0,0,1,16.57-5.82,61,61,0,0,1,8.74-.76,66.93,66.93,0,0,1,8.73.47,84.3,84.3,0,0,0-8.71.11,63.58,63.58,0,0,0-8.6,1.09A49.62,49.62,0,0,0,11.9,234.7,40.31,40.31,0,0,0-.75,246.19a33,33,0,0,0-4.06,7.59A22.05,22.05,0,0,0-6.45,262.24Z" style="fill:#afcee2"/><path d="M-1.23,264.51a24.89,24.89,0,0,1,1.14-5.24,30.1,30.1,0,0,1,2.21-4.92A30.44,30.44,0,0,1,9,246.07a35,35,0,0,1,19.73-7.88,48.37,48.37,0,0,0-10.07,3.26A38.27,38.27,0,0,0,9.81,247a34.64,34.64,0,0,0-6.9,7.84,30.44,30.44,0,0,0-2.45,4.66A31,31,0,0,0-1.23,264.51Z" style="fill:#afcee2"/><path d="M2.33,265c1.24-3.4,4-6,7-8A54.45,54.45,0,0,1,19,252.23a71.7,71.7,0,0,1,21-4.43,100.49,100.49,0,0,1,21.44,1.25q5.31.88,10.52,2.14c3.46.87,6.91,1.8,10.32,2.86-3.48-.8-7-1.61-10.45-2.29s-7-1.33-10.52-1.8a105.62,105.62,0,0,0-21.24-1,74,74,0,0,0-20.77,4.09,53.85,53.85,0,0,0-9.63,4.44A17.55,17.55,0,0,0,2.33,265Z" style="fill:#afcee2"/><path d="M3.06,274.6A7.14,7.14,0,0,1,4,270.55a7,7,0,0,1,2.9-3c-.59,1.3-1.24,2.39-1.85,3.55S3.83,273.4,3.06,274.6Z" style="fill:#afcee2"/><path d="M5.77,275.38a10.4,10.4,0,0,1,2.86-4.17,19.61,19.61,0,0,1,4.24-2.86,51.2,51.2,0,0,1,9.6-3.47,55.5,55.5,0,0,1,10.09-1.59,69.73,69.73,0,0,1,10.22,0,85,85,0,0,1,19.9,4.31q4.82,1.67,9.46,3.74c3.08,1.41,6.13,2.89,9.09,4.52-3.08-1.38-6.17-2.76-9.32-4s-6.3-2.41-9.52-3.4a88.19,88.19,0,0,0-19.71-4,65.23,65.23,0,0,0-20,1.24,51.74,51.74,0,0,0-9.55,3.11,18.64,18.64,0,0,0-4.29,2.57A10.85,10.85,0,0,0,5.77,275.38Z" style="fill:#afcee2"/><path d="M163.33,317.38c.69,3.11,1.26,6.25,1.89,9.38l1.68,9.41c1.1,6.28,2,12.58,3,18.88,1.78,12.62,3.34,25.27,4.29,38-2.27-12.55-4.14-25.15-6-37.76-.88-6.3-1.78-12.61-2.58-18.93l-1.21-9.48C164.06,323.71,163.64,320.55,163.33,317.38Z" style="fill:#fce6d2"/><path d="M129.55,369.72c3.34-1,6.71-2,10.06-3l10.08-2.89c6.72-1.95,13.45-3.82,20.19-5.69s13.51-3.65,20.3-5.32,13.62-3.24,20.49-4.62q-10.06,3-20.14,5.89t-20.2,5.68c-6.75,1.83-13.5,3.66-20.3,5.31l-10.21,2.44C136.4,368.27,133,369.05,129.55,369.72Z" style="fill:#fce6d2"/><path d="M186.76,331.12a111.09,111.09,0,0,1-7.26,13.73c-2.7,4.42-5.63,8.69-8.58,12.93-6,8.44-12.08,16.71-17.73,25.37,4.5-9.34,10.44-17.9,16.34-26.34S181.44,340,186.76,331.12Z" style="fill:#fce6d2"/><path d="M141.72,347c8.88,4.21,17.57,8.69,26.3,13.11s17.43,8.9,26,13.63A308.19,308.19,0,0,1,141.72,347Z" style="fill:#fce6d2"/><path d="M159.46,362.6a9.53,9.53,0,0,0,4.3,6.72c6.22,3.75,15.76-1.08,15.63-8.6a9.73,9.73,0,0,0-2.54-6.15,12.4,12.4,0,0,0-9.3-4.39C161.38,350.42,158.54,357.19,159.46,362.6Z" style="fill:#fce6d2"/><path d="M176.73,354.44a30.72,30.72,0,0,1-6.22,7.51,39.83,39.83,0,0,1-8.88,5.51,8.49,8.49,0,0,0,2.13,1.86c6.22,3.75,15.76-1.08,15.63-8.6a9.73,9.73,0,0,0-2.54-6.15Z" style="fill:#edc498"/><path d="M400.29,352.67a50.12,50.12,0,0,0,0-5.06c.16,3.54-.08,9.3,3.4,11.36a7.08,7.08,0,0,0,3,.59,31.42,31.42,0,0,0,3.36.09c-1.43.11-2.86.3-4.27.55a7.12,7.12,0,0,0-2.24.69c-1.35.75-1.63,2.25-1.91,3.65a31.66,31.66,0,0,0-.55,8.24c-.52-3.18.47-6.78-1.31-9.46a5.44,5.44,0,0,0-2.21-1.91,11.16,11.16,0,0,0-3-.7l-3.38-.49c1.3-.23,2.62-.25,3.92-.46a5.62,5.62,0,0,0,5-4.9A19.82,19.82,0,0,0,400.29,352.67Z" style="fill:#d4dfe3"/><path d="M15.79,354.07a44.84,44.84,0,0,0,0-5.06c.16,3.53-.08,9.29,3.4,11.36a7.12,7.12,0,0,0,3,.58c1.12.09,2.24.12,3.36.1a40.7,40.7,0,0,0-4.28.55,7.27,7.27,0,0,0-2.24.68c-1.35.75-1.63,2.25-1.91,3.66a32,32,0,0,0-.55,8.23c-.51-3.18.48-6.77-1.31-9.46A5.52,5.52,0,0,0,13,362.8a12,12,0,0,0-3-.7l-3.39-.48c1.3-.24,2.63-.25,3.92-.47a5.6,5.6,0,0,0,5-4.9A19.38,19.38,0,0,0,15.79,354.07Z" style="fill:#a3bfcd"/><path d="M261.76,344.53a21,21,0,0,0,2.86-6.74c.41-1.43,1.48-3.24,2.87-2.7a2.42,2.42,0,0,1,.9.75,11,11,0,0,1,2.49,5.82c.19,1.71.33,3.94,2,4.38a3.58,3.58,0,0,0,1.56-.05l8.4-1.52c.94,2.11-1.34,4.2-3.39,5.29s-4.52,2.68-4.15,5a6.7,6.7,0,0,0,1.23,2.44,12,12,0,0,1,1.85,5.82,29.87,29.87,0,0,1-9.36-2.51c-1.33-.6-2.76-1.32-4.18-1a5.88,5.88,0,0,0-2.22,1.38L255.49,367c-1.15-2,.08-4.47,1.09-6.54s1.69-4.94-.11-6.39c-1.27-1-3.1-.74-4.71-1s-3.31-2-2.35-3.33a2.76,2.76,0,0,1,1.34-.86C254.78,347.41,258.91,348.42,261.76,344.53Z" style="fill:#d7cbb5"/><path d="M261.61,344.42a11.77,11.77,0,0,0,1.76-3.86c.2-.68.36-1.37.52-2.07l.24-1.08a7.12,7.12,0,0,1,.41-1.11,4.33,4.33,0,0,1,.66-1,2.61,2.61,0,0,1,1.14-.82,2,2,0,0,1,1.57.11,3.35,3.35,0,0,1,1,.88,11.82,11.82,0,0,1,2.18,4,11.54,11.54,0,0,1,.47,2.25,15.74,15.74,0,0,0,.31,2.05,2.43,2.43,0,0,0,.77,1.44,1.84,1.84,0,0,0,1.53.14l8.51-1.57.57-.1.23.53a3.27,3.27,0,0,1,.25,1.8,4.19,4.19,0,0,1-.63,1.6,8.25,8.25,0,0,1-2.22,2.19,12.52,12.52,0,0,1-1.29.77c-.4.22-.8.45-1.17.69a7.16,7.16,0,0,0-1.92,1.67,2.26,2.26,0,0,0-.41,2,13.84,13.84,0,0,0,1.32,2.32,12.83,12.83,0,0,1,1.68,5.73l0,.86-.85-.09a30.29,30.29,0,0,1-6.53-1.4,28.71,28.71,0,0,1-3.11-1.23,8.83,8.83,0,0,0-2.84-1,3.28,3.28,0,0,0-2.45,1l-2.49,2.11-5,4.23-.6.5-.37-.67a4.49,4.49,0,0,1-.49-2.62,8.51,8.51,0,0,1,.66-2.4c.3-.75.66-1.46,1-2.14a10.7,10.7,0,0,0,.77-2.06c.38-1.39.29-3-.81-3.75s-2.73-.63-4.31-.91a4.07,4.07,0,0,1-2.2-1.21,2.93,2.93,0,0,1-.67-1.13,1.75,1.75,0,0,1,.16-1.36,2.12,2.12,0,0,1,1-.87,6.42,6.42,0,0,1,1.13-.41,20.71,20.71,0,0,1,2.3-.54A31.86,31.86,0,0,0,258,347a7.24,7.24,0,0,0,3.61-2.61Zm.3.22a8.11,8.11,0,0,1-1.66,1.7,8.66,8.66,0,0,1-2.11,1.1,32.55,32.55,0,0,1-4.58,1,15.16,15.16,0,0,0-2.23.56c-.71.24-1.48.51-1.75,1.07a1.47,1.47,0,0,0,.47,1.73,3.33,3.33,0,0,0,1.83.94c.73.11,1.5.1,2.3.17a4.87,4.87,0,0,1,2.41.74,3.38,3.38,0,0,1,1.41,2.21,5.93,5.93,0,0,1-.08,2.52,10.86,10.86,0,0,1-.79,2.31c-.34.71-.67,1.39-.94,2.08-.54,1.37-.82,2.86-.15,4l-1-.16,4.94-4.29,2.48-2.14a6.83,6.83,0,0,1,1.49-1,3.92,3.92,0,0,1,1.93-.37,10,10,0,0,1,3.33,1.07,26.78,26.78,0,0,0,3,1.15,28.43,28.43,0,0,0,6.23,1.3l-.8.77a11.26,11.26,0,0,0-1.52-5.06,14.47,14.47,0,0,1-1.47-2.62,3.81,3.81,0,0,1,.62-3.36,8.64,8.64,0,0,1,2.34-2.05c.42-.27.85-.52,1.28-.75a10,10,0,0,0,1.15-.68,6.62,6.62,0,0,0,1.82-1.75,2,2,0,0,0,.29-2l.81.43-8.52,1.51a5.32,5.32,0,0,1-1.25.1,2.69,2.69,0,0,1-1.37-.5,3.74,3.74,0,0,1-1.29-2.26,16.8,16.8,0,0,1-.33-2.22,10.32,10.32,0,0,0-.4-2,10.44,10.44,0,0,0-1.91-3.55c-.43-.55-.77-.7-1.12-.59a2.48,2.48,0,0,0-1.12,1.18,11.8,11.8,0,0,0-.79,1.89c-.25.68-.52,1.37-.81,2A20,20,0,0,1,261.91,344.64Z" style="fill:#050827"/><path d="M281.51,327.36a.89.89,0,0,1-.34-.77,1.88,1.88,0,0,1,.22-.68,7.74,7.74,0,0,1,.69-1.08c.46-.61.95-1.2,1.46-1.77a18.15,18.15,0,0,1,3.36-3.18l.32.26a17.74,17.74,0,0,1-2.44,3.93c-.45.62-.93,1.21-1.43,1.79a8.33,8.33,0,0,0-.66.78,1.43,1.43,0,0,1-.77.73Z" style="fill:#d7cbb5"/><path d="M291.67,338.22a1.45,1.45,0,0,1,.84-1.17c.37-.25.74-.51,1.12-.75A23.66,23.66,0,0,1,296,335a16.18,16.18,0,0,1,5.15-1.56l.14.38a48,48,0,0,1-4.58,2.62l-2.28,1.24-1.16.6a1.47,1.47,0,0,1-1.4.24Z" style="fill:#d7cbb5"/><path d="M291.33,354.13a1.65,1.65,0,0,1,1.52-.13l1.4.32c.92.23,1.83.5,2.74.79a27.88,27.88,0,0,1,5.32,2.13l-.11.39a27.94,27.94,0,0,1-5.65-1c-.92-.23-1.84-.48-2.75-.77l-1.35-.45a1.68,1.68,0,0,1-1.23-.92Z" style="fill:#d7cbb5"/><path d="M241.5,352.56c-.39.47-.62.37-.87.32l-.74-.13a14,14,0,0,1-1.44-.41,8,8,0,0,1-2.73-1.39l.11-.39a7.91,7.91,0,0,1,3,.23,11.92,11.92,0,0,1,1.45.39l.7.27c.24.09.49.12.58.72Z" style="fill:#d7cbb5"/><path d="M247.67,337.06a.75.75,0,0,1-.94-.06l-.66-.4c-.44-.27-.86-.56-1.28-.85a14.79,14.79,0,0,1-2.49-1.95l.16-.38a6.75,6.75,0,0,1,3.16.95,9.18,9.18,0,0,1,1.39.9c.22.17.42.36.62.54a.76.76,0,0,1,.3.93Z" style="fill:#d7cbb5"/><path d="M262.85,328.2a.78.78,0,0,1-.71-.67l-.25-.78a14,14,0,0,1-.34-1.59,9.32,9.32,0,0,1-.13-3.3l.39-.09a9.57,9.57,0,0,1,1.31,3c.15.52.27,1.05.37,1.58l.11.81a.77.77,0,0,1-.35.91Z" style="fill:#d7cbb5"/><path d="M383.56,362c-.55-1-1.3-1.81-1.85-2.77-3.5-6.1,1.52-15.51-3.78-20.13-2-1.74-4.84-2-7.48-1.42a13.08,13.08,0,0,0-2.07.64c-3.12,1.27-5.76,3.46-8.69,5.12a27.28,27.28,0,0,1-7.25,2.84,28.38,28.38,0,0,1-15.66-.65c-1.92-.65-3.85-1.52-5.88-1.45-4.48.17-7.41,4.65-9.28,8.73-1.66,3.61-3.14,7.43-3.16,11.4s1.68,8.17,5.11,10.18c4,2.34,9.31,1.24,13.45,3.38,3.34,1.72,5.35,5.27,8.39,7.49,4.28,3.14,11.38,3.21,15.48-.38s4.71-8.08,10.87-9.67c3.84-1,8.2-1.45,10.84-4.41A7.91,7.91,0,0,0,383.56,362Z" style="fill:#9b8170"/><path d="M383.39,362.12c-.48-.84-1.12-1.59-1.68-2.43a13.25,13.25,0,0,1-.72-1.34c-.22-.46-.36-1-.54-1.43a22.53,22.53,0,0,1-.63-6c0-2,.13-4,0-5.85a12.75,12.75,0,0,0-.18-1.4c-.09-.46-.22-.9-.35-1.34a6.26,6.26,0,0,0-1.39-2.26,6.35,6.35,0,0,0-4.83-1.95,12,12,0,0,0-5.4,1.31c-3.42,1.66-6.46,4.4-10.25,6a29.56,29.56,0,0,1-11.83,2.44,29.16,29.16,0,0,1-6-.65,29.67,29.67,0,0,1-2.94-.8c-1-.32-1.88-.68-2.79-1a9.11,9.11,0,0,0-2.68-.47,6.31,6.31,0,0,0-2.55.57,10.49,10.49,0,0,0-4,3.68,29.18,29.18,0,0,0-2.75,5.08,36.81,36.81,0,0,0-2,5.46,17.68,17.68,0,0,0-.61,5.63,12.49,12.49,0,0,0,1.6,5.32,8.64,8.64,0,0,0,4,3.64,19.62,19.62,0,0,0,5.56,1.26,24.43,24.43,0,0,1,6,1.23,14,14,0,0,1,5,3.64,44.75,44.75,0,0,0,4.12,4.14,10.4,10.4,0,0,0,2.4,1.44,12,12,0,0,0,2.69.85c3.7.73,7.87,0,10.61-2.72a36.81,36.81,0,0,0,3.75-4.5,12.23,12.23,0,0,1,4.61-3.88,31.67,31.67,0,0,1,5.77-1.57,17.19,17.19,0,0,0,5.45-2,8,8,0,0,0,2.13-1.92,7.82,7.82,0,0,0,1.23-2.59A7.68,7.68,0,0,0,383.39,362.12Zm.33-.19a8.16,8.16,0,0,1-.55,8.64,8.71,8.71,0,0,1-2.23,2.05c-3.45,2.22-7.7,2.22-11.2,3.78a11.65,11.65,0,0,0-4.29,3.76,36.27,36.27,0,0,1-3.73,4.68,11.43,11.43,0,0,1-5.32,3,14.43,14.43,0,0,1-6.1.2,13.42,13.42,0,0,1-3-.88,11.46,11.46,0,0,1-2.68-1.58,43.79,43.79,0,0,1-4.29-4.2,13.08,13.08,0,0,0-4.54-3.28A23.24,23.24,0,0,0,330.2,377a20.53,20.53,0,0,1-6-1.34,10,10,0,0,1-4.64-4.19,13.72,13.72,0,0,1-1.81-5.92,19.24,19.24,0,0,1,.63-6.11,35.87,35.87,0,0,1,2-5.68,30.35,30.35,0,0,1,2.86-5.35,12,12,0,0,1,4.63-4.2,8,8,0,0,1,3.18-.73,10.76,10.76,0,0,1,3.14.54c1,.3,1.9.67,2.82,1s1.83.55,2.77.77a28,28,0,0,0,17-1.64c3.56-1.45,6.53-4.12,10.22-5.92a13.41,13.41,0,0,1,6-1.43,7.73,7.73,0,0,1,7.49,5.16c.14.5.3,1,.39,1.53a13.49,13.49,0,0,1,.19,1.54,41.12,41.12,0,0,1-.17,6,21.23,21.23,0,0,0,.11,5.8c.13.45.22.93.39,1.38a12.88,12.88,0,0,0,.62,1.3C382.58,360.29,383.23,361.05,383.72,361.93Z" style="fill:#050827"/><path d="M344.41,361.85a4.87,4.87,0,0,0,0-2.9,6,6,0,0,0-.42-1.24,3.5,3.5,0,0,0-.79-1c-1.31-1.19-3.38-1.49-5.28-1.41a13.41,13.41,0,0,0-5.59,1.46,7.17,7.17,0,0,0-3.76,4,6.13,6.13,0,0,0-.47,2.69,3.75,3.75,0,0,0,1.12,2.3,6.45,6.45,0,0,0,5.16,1.66,17.63,17.63,0,0,0,5.79-1.46A7.46,7.46,0,0,0,344.41,361.85Zm.35.13a8.83,8.83,0,0,1-4.25,4.5,17.63,17.63,0,0,1-2.89,1.25,15.78,15.78,0,0,1-3.08.77,9.12,9.12,0,0,1-3.28-.18,6.52,6.52,0,0,1-2.95-1.65,5.15,5.15,0,0,1-1.55-3.12,7.45,7.45,0,0,1,.5-3.34,9.76,9.76,0,0,1,.7-1.52,8.71,8.71,0,0,1,1.05-1.35,10.47,10.47,0,0,1,2.66-1.95,14.86,14.86,0,0,1,6.25-1.61,11.67,11.67,0,0,1,3.26.34,6.73,6.73,0,0,1,3,1.57,4.19,4.19,0,0,1,1.42,3.15A11.89,11.89,0,0,1,344.76,362Z" style="fill:#050827"/><path d="M370.5,359.89a10.88,10.88,0,0,1,2.44-.5,3.79,3.79,0,0,1,2.44,1,4.41,4.41,0,0,1,1.33,2.37,5.9,5.9,0,0,1-1.3,5,7.68,7.68,0,0,1-2,1.64,13.1,13.1,0,0,1-4.67,1.5,9,9,0,0,1-2.5.07,4.89,4.89,0,0,1-2.46-1,4.05,4.05,0,0,1-1.6-2.18,3.53,3.53,0,0,1,.46-2.67,10.75,10.75,0,0,1,3.55-3.28A18,18,0,0,1,370.5,359.89Zm.09.36a12.32,12.32,0,0,0-4,2.15,9.79,9.79,0,0,0-2.9,3.28,2.43,2.43,0,0,0-.22,1.8,2.86,2.86,0,0,0,1.16,1.43,5,5,0,0,0,3.93.57,11.59,11.59,0,0,0,4.1-1.4,5.08,5.08,0,0,0,2.51-3,3.61,3.61,0,0,0-.73-3.61,4.28,4.28,0,0,0-1.69-.9A3.4,3.4,0,0,0,370.59,360.25Z" style="fill:#050827"/><path d="M363.67,358.18a1.05,1.05,0,0,1,.54-1.05c.28-.22.57-.45.87-.65a9.62,9.62,0,0,1,2-1,7.65,7.65,0,0,1,4.28-.46l0,.37c-1.31.55-2.56.89-3.75,1.46-.59.27-1.17.57-1.74.88-.29.16-.58.31-.86.48a1.06,1.06,0,0,1-1.09.22Z" style="fill:#050827"/><path d="M363.5,349.92a6.87,6.87,0,0,0,3.26-1.85,7.3,7.3,0,0,0,2.18-2.87,11.52,11.52,0,0,0,.88-3.6,13.26,13.26,0,0,0,.05-1.89l-.18-1.89.92.64a15.68,15.68,0,0,0-4.41,1.81c-1.42.8-2.79,1.74-4.22,2.64a31,31,0,0,1-4.51,2.43,27.43,27.43,0,0,1-4.89,1.53l.26-1a13.39,13.39,0,0,0,4.81,3.3A11.14,11.14,0,0,0,363.5,349.92Zm.06.37a13.82,13.82,0,0,1-6.12-.47,14.14,14.14,0,0,1-5.4-3.1l-.74-.7,1-.26a32.54,32.54,0,0,0,4.62-1.65,28.17,28.17,0,0,0,4.28-2.4c1.39-.9,2.76-1.87,4.24-2.74a22.91,22.91,0,0,1,2.31-1.2,13.22,13.22,0,0,1,2.52-.81l.85-.18.08.82.18,2.07a14.51,14.51,0,0,1-.07,2.08,12.89,12.89,0,0,1-1.09,4.05,8.61,8.61,0,0,1-2.67,3.32A8.84,8.84,0,0,1,363.56,350.29Z" style="fill:#050827"/><path d="M479.21,54.54a12.93,12.93,0,0,1,3.93-.13,7.78,7.78,0,0,1,3.8,1.36,5.08,5.08,0,0,1,1.32,1.66,2.74,2.74,0,0,1,.13,2.28A4.06,4.06,0,0,1,487,61.4a9.54,9.54,0,0,1-1.77,1,31.14,31.14,0,0,1-7.6,2,27.15,27.15,0,0,1-7.91.26,9.49,9.49,0,0,1-3.94-1.37,5.34,5.34,0,0,1-2.37-3.67,5.7,5.7,0,0,1,.87-4.3,9.89,9.89,0,0,1,3.15-2.78A21,21,0,0,1,471.07,51c1.24-.43,2.47-.82,3.71-1.19q3.75-1.11,7.57-1.86a72.83,72.83,0,0,1,15.53-1.42c1.31,0,2.59.09,3.93.22a12.5,12.5,0,0,1,4,1A7.44,7.44,0,0,1,510,54.86a13.09,13.09,0,0,1-3.16,7.53,14.28,14.28,0,0,1-1.43,1.48c-.51.42-1,.87-1.53,1.28s-1.06.79-1.61,1.16-1.11.73-1.68,1.06A55.66,55.66,0,0,1,486,73c-2.52.65-5.05,1.19-7.59,1.68s-5.08,1-7.66,1.31a54.68,54.68,0,0,1-15.65.16A30.11,30.11,0,0,1,447.43,74a17.9,17.9,0,0,1-6.57-4.72,9.8,9.8,0,0,1-2-3.77,8.66,8.66,0,0,1,0-4.29,11.48,11.48,0,0,1,1.76-3.8,22.53,22.53,0,0,1,2.71-3,44.71,44.71,0,0,1,13.34-8.27,129.38,129.38,0,0,1,14.72-5,139.28,139.28,0,0,1,30.52-5.49,60.26,60.26,0,0,1,15.62.65,30.24,30.24,0,0,1,7.52,2.51A25.9,25.9,0,0,1,528.51,41a13,13,0,0,1,2.84,3A10.12,10.12,0,0,1,533,47.81a9.11,9.11,0,0,1-.2,4.22,18,18,0,0,1-4.17,6.89,49.69,49.69,0,0,1-12.41,9.52,116.28,116.28,0,0,1-14,6.81,127.81,127.81,0,0,1-14.75,4.85,298.78,298.78,0,0,1-30.33,6.12q-7.64,1.17-15.34,2a72.56,72.56,0,0,1-15.53.39,38.86,38.86,0,0,1-3.87-.59,25.22,25.22,0,0,1-3.82-1,10.84,10.84,0,0,1-3.5-2.06A7.06,7.06,0,0,1,413,81.31a10.77,10.77,0,0,1,1.57-7.81c.71-1.11,1.47-2.15,2.21-3.22s1.61-2,2.41-3.06a81.67,81.67,0,0,1,24.34-19,132.29,132.29,0,0,1,28.85-11l.12.46A132.25,132.25,0,0,0,443.92,49c-9,4.91-17.35,11.1-23.91,18.94-.77,1-1.63,2-2.35,3s-1.46,2.1-2.13,3.15a9.69,9.69,0,0,0-1.4,7A5.72,5.72,0,0,0,415.91,84,9.6,9.6,0,0,0,419,85.8a23.08,23.08,0,0,0,3.63,1c1.24.24,2.49.44,3.76.56a71.63,71.63,0,0,0,15.26-.49q7.65-.84,15.26-2a301,301,0,0,0,30.13-6.26,133.86,133.86,0,0,0,14.53-4.86A113.55,113.55,0,0,0,515.35,67a48.52,48.52,0,0,0,12-9.2,16.34,16.34,0,0,0,3.77-6.19,7.73,7.73,0,0,0-1.21-6.6,11.11,11.11,0,0,0-2.46-2.57c-.46-.37-1-.68-1.52-1s-1.08-.6-1.62-.9a28.44,28.44,0,0,0-7.08-2.34,58.43,58.43,0,0,0-15.14-.59A137.73,137.73,0,0,0,472,43a128,128,0,0,0-14.49,4.94,43.11,43.11,0,0,0-12.76,7.91,21.28,21.28,0,0,0-2.45,2.71,9.63,9.63,0,0,0-1.47,3.15,7.05,7.05,0,0,0,1.57,6.36,16.07,16.07,0,0,0,5.86,4.2,28.52,28.52,0,0,0,7.16,2,52.79,52.79,0,0,0,15.11-.14c2.53-.33,5-.79,7.56-1.27s5-1,7.48-1.65a54,54,0,0,0,14.12-5.42c.54-.32,1.06-.67,1.59-1s1-.73,1.51-1.09a18.33,18.33,0,0,0,2.69-2.49,11.34,11.34,0,0,0,2.75-6.44,6,6,0,0,0-.74-3.23,6.49,6.49,0,0,0-1-1.31,5.39,5.39,0,0,0-1.37-.92c-2.07-1-4.69-1-7.21-1.09a70.77,70.77,0,0,0-15.15,1.35c-2.5.49-5,1.09-7.42,1.81a32.76,32.76,0,0,0-7,2.68,8.11,8.11,0,0,0-2.61,2.26A4,4,0,0,0,465,59.4a3.72,3.72,0,0,0,1.65,2.65,8.11,8.11,0,0,0,3.28,1.15,26.71,26.71,0,0,0,7.46-.14,29.81,29.81,0,0,0,7.33-1.73,5,5,0,0,0,2.68-2c.44-.87-.22-2.08-1-2.84A7,7,0,0,0,483,55.11a13.15,13.15,0,0,0-3.76-.1Z" style="fill:#fff"/><path d="M409.37,95.75a43.36,43.36,0,0,1-.09,5.93,42.22,42.22,0,0,1-.75,5.88,23.75,23.75,0,0,1-.24-6A24,24,0,0,1,409.37,95.75Z" style="fill:#fff"/><path d="M404.48,102.06a22.54,22.54,0,0,1,8.35-.2,13.07,13.07,0,0,1-4.16.7A13.3,13.3,0,0,1,404.48,102.06Z" style="fill:#fff"/><path d="M403.18,54.53c-2.23-2.26-5.8.21-7.39,1.94a2.55,2.55,0,0,0-.67,1.08,1.93,1.93,0,0,0,1,2,3.87,3.87,0,0,0,2.38.3,7.68,7.68,0,0,0,3.67-1.6,3.88,3.88,0,0,0,1.33-1.7A2,2,0,0,0,403.18,54.53Z" style="fill:#70aad2"/></g></svg>